ISO-10303-21;
HEADER;
FILE_DESCRIPTION(('STEP AP203'),
    '1');
FILE_NAME('Крышечка',
    '',
    ('UNSPECIFIED'),
    ('UNSPECIFIED'),
    'C3D Converter',
    'C3D Toolkit',
    '');
FILE_SCHEMA(('CONFIG_CONTROL_DESIGN'));
ENDSEC;

DATA;
#1=PRODUCT_DEFINITION('','UNSPECIFIED',#31,#34);
#2=SHAPE_DEFINITION_REPRESENTATION(#29,#3);
#3=SHAPE_REPRESENTATION('NONE',(#4),#8);
#4=AXIS2_PLACEMENT_3D('',#5,#6,#7);
#5=CARTESIAN_POINT('',(0.,0.,0.));
#6=DIRECTION('',(0.,0.,1.));
#7=DIRECTION('',(1.,0.,0.));
#8=(GEOMETRIC_REPRESENTATION_CONTEXT(3)GLOBAL_UNCERTAINTY_ASSIGNED_CONTEXT((#10))
GLOBAL_UNIT_ASSIGNED_CONTEXT((#9,#11,#12))REPRESENTATION_CONTEXT('NONE','NONE'));
#9=(LENGTH_UNIT()NAMED_UNIT(*)SI_UNIT(.MILLI.,.METRE.));
#10=UNCERTAINTY_MEASURE_WITH_UNIT(LENGTH_MEASURE(1.E-5),#9,'NONE','NONE');
#11=(NAMED_UNIT(*)PLANE_ANGLE_UNIT()SI_UNIT($,.RADIAN.));
#12=(NAMED_UNIT(*)SI_UNIT($,.STERADIAN.)SOLID_ANGLE_UNIT());
#13=MANIFOLD_SOLID_BREP('',#14);
#14=CLOSED_SHELL('',(#56,#57,#58,#59,#60,#61,#62,#63,#64,#65,#66,#67,#68,#69,#70,
#71,#72,#73,#74,#75,#76,#77,#78,#79,#80,#81,#82,#83,#84,#85,#86,#87,#88,#89,#90,
#91,#92,#93,#94,#95,#96,#97,#98,#99,#100,#101,#102,#103,#104,#105,#106,#107,#108,
#109,#110,#111,#112,#113,#114,#115));
#15=COLOUR_RGB('',0.564705882352941,0.564705882352941,0.564705882352941);
#16=FILL_AREA_STYLE_COLOUR('',#15);
#17=FILL_AREA_STYLE($,(#16));
#18=SURFACE_STYLE_FILL_AREA(#17);
#19=SURFACE_SIDE_STYLE('',(#18));
#20=SURFACE_STYLE_USAGE(.BOTH.,#19);
#21=PRESENTATION_STYLE_ASSIGNMENT((#20));
#22=MECHANICAL_DESIGN_GEOMETRIC_PRESENTATION_REPRESENTATION('NONE',(#23,#121),#8);
#23=STYLED_ITEM('',(#21),#13);
#24=ADVANCED_BREP_SHAPE_REPRESENTATION('NONE',(#13),#8);
#25=SHAPE_REPRESENTATION_RELATIONSHIP('','',#3,#24);
#26=GEOMETRIC_CURVE_SET('',(#116));
#27=GEOMETRICALLY_BOUNDED_WIREFRAME_SHAPE_REPRESENTATION('NONE',(#26),#8);
#28=SHAPE_REPRESENTATION_RELATIONSHIP('','',#3,#27);
#29=PRODUCT_DEFINITION_SHAPE('NONE','NONE',#1);
#30=MECHANICAL_CONTEXT('NONE',#35,'mechanical');
#31=PRODUCT_DEFINITION_FORMATION_WITH_SPECIFIED_SOURCE('ANY','UNSPECIFIED',#32,.NOT_KNOWN.);
#32=PRODUCT('','\X2\041A043E0440043F04430441\X0\','NONE',(#30));
#33=PRODUCT_RELATED_PRODUCT_CATEGORY('detail','',(#32));
#34=DESIGN_CONTEXT('detailed design',#35,'design');
#35=APPLICATION_CONTEXT('configuration controlled 3d designs of mechanical parts and assemblies');
#36=APPLICATION_PROTOCOL_DEFINITION('international standard','config_control_design',
1994,#35);
#37=CC_DESIGN_DATE_AND_TIME_ASSIGNMENT(#38,#42,(#1));
#38=DATE_AND_TIME(#39,#40);
#39=CALENDAR_DATE(0,1,1);
#40=LOCAL_TIME(0,0,0.,#41);
#41=COORDINATED_UNIVERSAL_TIME_OFFSET(0,0,.AHEAD.);
#42=DATE_TIME_ROLE('creation_date');
#43=CC_DESIGN_APPROVAL(#44,(#1));
#44=APPROVAL(#45,'UNSPECIFIED');
#45=APPROVAL_STATUS('not_yet_approved');
#46=APPROVAL_DATE_TIME(#47,#44);
#47=DATE_AND_TIME(#48,#49);
#48=CALENDAR_DATE(0,1,1);
#49=LOCAL_TIME(0,0,0.,#50);
#50=COORDINATED_UNIVERSAL_TIME_OFFSET(0,0,.AHEAD.);
#51=PERSON('UNSPECIFIED','Ворк стейшон','UNSPECIFIED',('UNSPECIFIED'),('UNSPECIFIED'),
('UNSPECIFIED'));
#52=ORGANIZATION('UNSPECIFIED','UNSPECIFIED','UNSPECIFIED');
#53=PERSON_AND_ORGANIZATION(#51,#52);
#54=PERSON_AND_ORGANIZATION_ROLE('creator');
#55=CC_DESIGN_PERSON_AND_ORGANIZATION_ASSIGNMENT(#53,#54,(#31,#1));
#56=ADVANCED_FACE('',(#123,#125),#127,.T.);
#57=ADVANCED_FACE('',(#132,#134),#136,.F.);
#58=ADVANCED_FACE('',(#141),#143,.T.);
#59=ADVANCED_FACE('',(#148),#150,.F.);
#60=ADVANCED_FACE('',(#155),#157,.T.);
#61=ADVANCED_FACE('',(#162),#164,.F.);
#62=ADVANCED_FACE('',(#169),#171,.T.);
#63=ADVANCED_FACE('',(#176),#178,.T.);
#64=ADVANCED_FACE('',(#183),#185,.T.);
#65=ADVANCED_FACE('',(#190),#192,.T.);
#66=ADVANCED_FACE('',(#197),#199,.T.);
#67=ADVANCED_FACE('',(#204),#206,.T.);
#68=ADVANCED_FACE('',(#211),#213,.T.);
#69=ADVANCED_FACE('',(#218),#220,.T.);
#70=ADVANCED_FACE('',(#225),#227,.F.);
#71=ADVANCED_FACE('',(#232),#234,.F.);
#72=ADVANCED_FACE('',(#239),#241,.F.);
#73=ADVANCED_FACE('',(#246),#248,.F.);
#74=ADVANCED_FACE('',(#253,#255),#257,.F.);
#75=ADVANCED_FACE('',(#262,#264),#266,.T.);
#76=ADVANCED_FACE('',(#271),#273,.F.);
#77=ADVANCED_FACE('',(#278),#280,.T.);
#78=ADVANCED_FACE('',(#285),#287,.F.);
#79=ADVANCED_FACE('',(#292),#294,.T.);
#80=ADVANCED_FACE('',(#299),#301,.T.);
#81=ADVANCED_FACE('',(#306),#308,.T.);
#82=ADVANCED_FACE('',(#313),#315,.T.);
#83=ADVANCED_FACE('',(#320),#322,.T.);
#84=ADVANCED_FACE('',(#327),#329,.F.);
#85=ADVANCED_FACE('',(#334),#336,.F.);
#86=ADVANCED_FACE('',(#341),#343,.F.);
#87=ADVANCED_FACE('',(#348),#350,.F.);
#88=ADVANCED_FACE('',(#355),#357,.F.);
#89=ADVANCED_FACE('',(#362),#364,.F.);
#90=ADVANCED_FACE('',(#369),#371,.F.);
#91=ADVANCED_FACE('',(#376),#378,.F.);
#92=ADVANCED_FACE('',(#383),#385,.T.);
#93=ADVANCED_FACE('',(#390),#392,.T.);
#94=ADVANCED_FACE('',(#397),#399,.T.);
#95=ADVANCED_FACE('',(#404),#406,.T.);
#96=ADVANCED_FACE('',(#411),#413,.T.);
#97=ADVANCED_FACE('',(#418),#420,.T.);
#98=ADVANCED_FACE('',(#425),#427,.T.);
#99=ADVANCED_FACE('',(#432),#434,.T.);
#100=ADVANCED_FACE('',(#439),#441,.T.);
#101=ADVANCED_FACE('',(#446),#448,.T.);
#102=ADVANCED_FACE('',(#453),#455,.T.);
#103=ADVANCED_FACE('',(#460),#462,.T.);
#104=ADVANCED_FACE('',(#467),#469,.T.);
#105=ADVANCED_FACE('',(#474),#476,.T.);
#106=ADVANCED_FACE('',(#481),#483,.T.);
#107=ADVANCED_FACE('',(#488),#490,.T.);
#108=ADVANCED_FACE('',(#495),#497,.T.);
#109=ADVANCED_FACE('',(#502),#504,.T.);
#110=ADVANCED_FACE('',(#509),#511,.T.);
#111=ADVANCED_FACE('',(#516),#518,.T.);
#112=ADVANCED_FACE('',(#523),#525,.T.);
#113=ADVANCED_FACE('',(#530),#532,.T.);
#114=ADVANCED_FACE('',(#537),#539,.T.);
#115=ADVANCED_FACE('',(#544),#546,.T.);
#116=COMPOSITE_CURVE('',(#551,#552,#553,#554),.F.);
#117=COLOUR_RGB('',0.,0.,1.);
#118=PRESENTATION_STYLE_ASSIGNMENT((#119));
#119=CURVE_STYLE('',#120,POSITIVE_LENGTH_MEASURE(0.1),#117);
#120=PRE_DEFINED_CURVE_FONT('continuous');
#121=STYLED_ITEM('',(#118),#116);
#122=INVISIBILITY((#121));
#123=FACE_BOUND('',#124,.T.);
#124=EDGE_LOOP('',(#555,#556,#557,#558));
#125=FACE_BOUND('',#126,.T.);
#126=EDGE_LOOP('',(#559,#560,#561,#562));
#127=PLANE('',#128);
#128=AXIS2_PLACEMENT_3D('',#129,#130,#131);
#129=CARTESIAN_POINT('',(-17.5,-1.21055845928798,4.5));
#130=DIRECTION('',(0.,0.,-1.));
#131=DIRECTION('',(1.,-7.61295788314393E-17,0.));
#132=FACE_BOUND('',#133,.T.);
#133=EDGE_LOOP('',(#563,#564,#565,#566));
#134=FACE_BOUND('',#135,.T.);
#135=EDGE_LOOP('',(#567,#568,#569,#570));
#136=PLANE('',#137);
#137=AXIS2_PLACEMENT_3D('',#138,#139,#140);
#138=CARTESIAN_POINT('',(0.,0.,11.5));
#139=DIRECTION('',(0.,0.,1.));
#140=DIRECTION('',(1.,0.,0.));
#141=FACE_BOUND('',#142,.T.);
#142=EDGE_LOOP('',(#571,#572,#573,#574));
#143=PLANE('',#144);
#144=AXIS2_PLACEMENT_3D('',#145,#146,#147);
#145=CARTESIAN_POINT('',(17.5,-0.710558459287984,1.5));
#146=DIRECTION('',(7.61295788314393E-17,1.,0.));
#147=DIRECTION('',(-1.,7.61295788314393E-17,0.));
#148=FACE_BOUND('',#149,.T.);
#149=EDGE_LOOP('',(#575,#576,#577,#578));
#150=CYLINDRICAL_SURFACE('',#151,3.5);
#151=AXIS2_PLACEMENT_3D('',#152,#153,#154);
#152=CARTESIAN_POINT('',(17.5,2.78944154071202,1.5));
#153=DIRECTION('',(0.,0.,-1.));
#154=DIRECTION('',(3.80647894157197E-17,1.,0.));
#155=FACE_BOUND('',#156,.T.);
#156=EDGE_LOOP('',(#579,#580,#581,#582));
#157=PLANE('',#158);
#158=AXIS2_PLACEMENT_3D('',#159,#160,#161);
#159=CARTESIAN_POINT('',(-17.5,6.28944154071202,1.5));
#160=DIRECTION('',(-1.01506105108586E-16,-1.,0.));
#161=DIRECTION('',(1.,-1.01506105108586E-16,0.));
#162=FACE_BOUND('',#163,.T.);
#163=EDGE_LOOP('',(#583,#584,#585,#586));
#164=CYLINDRICAL_SURFACE('',#165,3.5);
#165=AXIS2_PLACEMENT_3D('',#166,#167,#168);
#166=CARTESIAN_POINT('',(-17.5,2.78944154071202,1.5));
#167=DIRECTION('',(0.,0.,-1.));
#168=DIRECTION('',(-1.22464679914735E-16,-1.,0.));
#169=FACE_BOUND('',#170,.T.);
#170=EDGE_LOOP('',(#587,#588,#589,#590));
#171=CYLINDRICAL_SURFACE('',#172,4.);
#172=AXIS2_PLACEMENT_3D('',#173,#174,#175);
#173=CARTESIAN_POINT('',(-17.5,2.78944154071202,1.5));
#174=DIRECTION('',(0.,0.,1.));
#175=DIRECTION('',(-6.16297582203916E-33,1.,0.));
#176=FACE_BOUND('',#177,.T.);
#177=EDGE_LOOP('',(#591,#592,#593,#594));
#178=PLANE('',#179);
#179=AXIS2_PLACEMENT_3D('',#180,#181,#182);
#180=CARTESIAN_POINT('',(17.5,6.78944154071201,1.5));
#181=DIRECTION('',(1.01506105108586E-16,1.,0.));
#182=DIRECTION('',(-1.,1.01506105108586E-16,0.));
#183=FACE_BOUND('',#184,.T.);
#184=EDGE_LOOP('',(#595,#596,#597,#598));
#185=CYLINDRICAL_SURFACE('',#186,4.);
#186=AXIS2_PLACEMENT_3D('',#187,#188,#189);
#187=CARTESIAN_POINT('',(17.5,2.78944154071202,1.5));
#188=DIRECTION('',(0.,0.,1.));
#189=DIRECTION('',(-3.80647894157197E-17,-1.,0.));
#190=FACE_BOUND('',#191,.T.);
#191=EDGE_LOOP('',(#599,#600,#601,#602));
#192=PLANE('',#193);
#193=AXIS2_PLACEMENT_3D('',#194,#195,#196);
#194=CARTESIAN_POINT('',(-17.5,-1.21055845928798,1.5));
#195=DIRECTION('',(-7.61295788314393E-17,-1.,0.));
#196=DIRECTION('',(1.,-7.61295788314393E-17,0.));
#197=FACE_BOUND('',#198,.T.);
#198=EDGE_LOOP('',(#603,#604,#605,#606));
#199=PLANE('',#200);
#200=AXIS2_PLACEMENT_3D('',#201,#202,#203);
#201=CARTESIAN_POINT('',(-17.5,-2.21055845928798,4.5));
#202=DIRECTION('',(-7.61295788314393E-17,-1.,0.));
#203=DIRECTION('',(1.,-7.61295788314393E-17,0.));
#204=FACE_BOUND('',#205,.T.);
#205=EDGE_LOOP('',(#607,#608,#609,#610));
#206=CYLINDRICAL_SURFACE('',#207,5.);
#207=AXIS2_PLACEMENT_3D('',#208,#209,#210);
#208=CARTESIAN_POINT('',(-17.5,2.78944154071202,4.5));
#209=DIRECTION('',(0.,0.,1.));
#210=DIRECTION('',(0.,1.,0.));
#211=FACE_BOUND('',#212,.T.);
#212=EDGE_LOOP('',(#611,#612,#613,#614));
#213=PLANE('',#214);
#214=AXIS2_PLACEMENT_3D('',#215,#216,#217);
#215=CARTESIAN_POINT('',(17.5,7.78944154071202,4.5));
#216=DIRECTION('',(5.07530525542929E-17,1.,0.));
#217=DIRECTION('',(-1.,5.07530525542929E-17,0.));
#218=FACE_BOUND('',#219,.T.);
#219=EDGE_LOOP('',(#615,#616,#617,#618));
#220=CYLINDRICAL_SURFACE('',#221,5.);
#221=AXIS2_PLACEMENT_3D('',#222,#223,#224);
#222=CARTESIAN_POINT('',(17.5,2.78944154071202,4.5));
#223=DIRECTION('',(0.,0.,1.));
#224=DIRECTION('',(0.,-1.,0.));
#225=FACE_BOUND('',#226,.T.);
#226=EDGE_LOOP('',(#619,#620,#621,#622));
#227=CYLINDRICAL_SURFACE('',#228,1.5);
#228=AXIS2_PLACEMENT_3D('',#229,#230,#231);
#229=CARTESIAN_POINT('',(3.5,2.6,11.5));
#230=DIRECTION('',(0.,0.,1.));
#231=DIRECTION('',(-2.96059473233375E-16,-1.,0.));
#232=FACE_BOUND('',#233,.T.);
#233=EDGE_LOOP('',(#623,#624,#625,#626));
#234=PLANE('',#235);
#235=AXIS2_PLACEMENT_3D('',#236,#237,#238);
#236=CARTESIAN_POINT('',(3.5,4.1,11.5));
#237=DIRECTION('',(-1.26882631385732E-16,1.,0.));
#238=DIRECTION('',(-1.,-1.26882631385732E-16,0.));
#239=FACE_BOUND('',#240,.T.);
#240=EDGE_LOOP('',(#627,#628,#629,#630));
#241=CYLINDRICAL_SURFACE('',#242,1.5);
#242=AXIS2_PLACEMENT_3D('',#243,#244,#245);
#243=CARTESIAN_POINT('',(-3.5,2.6,11.5));
#244=DIRECTION('',(0.,0.,1.));
#245=DIRECTION('',(2.96059473233375E-16,1.,0.));
#246=FACE_BOUND('',#247,.T.);
#247=EDGE_LOOP('',(#631,#632,#633,#634));
#248=PLANE('',#249);
#249=AXIS2_PLACEMENT_3D('',#250,#251,#252);
#250=CARTESIAN_POINT('',(-3.5,1.1,11.5));
#251=DIRECTION('',(-3.1720657846433E-17,-1.,0.));
#252=DIRECTION('',(1.,-3.1720657846433E-17,0.));
#253=FACE_BOUND('',#254,.T.);
#254=EDGE_LOOP('',(#635,#636,#637,#638));
#255=FACE_BOUND('',#256,.T.);
#256=EDGE_LOOP('',(#639,#640,#641,#642));
#257=PLANE('',#258);
#258=AXIS2_PLACEMENT_3D('',#259,#260,#261);
#259=CARTESIAN_POINT('',(-17.5,-1.21055845928798,1.5));
#260=DIRECTION('',(0.,0.,1.));
#261=DIRECTION('',(1.,-3.80647894157197E-17,0.));
#262=FACE_BOUND('',#263,.T.);
#263=EDGE_LOOP('',(#643,#644,#645,#646));
#264=FACE_BOUND('',#265,.T.);
#265=EDGE_LOOP('',(#647,#648,#649,#650));
#266=PLANE('',#267);
#267=AXIS2_PLACEMENT_3D('',#268,#269,#270);
#268=CARTESIAN_POINT('',(0.,0.,12.5));
#269=DIRECTION('',(0.,0.,1.));
#270=DIRECTION('',(1.,0.,0.));
#271=FACE_BOUND('',#272,.T.);
#272=EDGE_LOOP('',(#651,#652,#653,#654));
#273=PLANE('',#274);
#274=AXIS2_PLACEMENT_3D('',#275,#276,#277);
#275=CARTESIAN_POINT('',(-18.7,-1.21055845928798,1.8));
#276=DIRECTION('',(5.03772981395864E-17,0.707106781186548,0.707106781186548));
#277=DIRECTION('',(1.,-7.12442582647159E-17,0.));
#278=FACE_BOUND('',#279,.T.);
#279=EDGE_LOOP('',(#655,#656,#657,#658));
#280=CONICAL_SURFACE('',#281,3.85,0.785398163397448);
#281=AXIS2_PLACEMENT_3D('',#282,#283,#284);
#282=CARTESIAN_POINT('',(17.5,2.78944154071202,1.65));
#283=DIRECTION('',(0.,0.,1.));
#284=DIRECTION('',(-0.161452378026869,-0.986880504230107,0.));
#285=FACE_BOUND('',#286,.T.);
#286=EDGE_LOOP('',(#659,#660,#661,#662));
#287=PLANE('',#288);
#288=AXIS2_PLACEMENT_3D('',#289,#290,#291);
#289=CARTESIAN_POINT('',(18.7,6.78944154071201,1.8));
#290=DIRECTION('',(-6.71697308527818E-17,-0.707106781186547,0.707106781186548));
#291=DIRECTION('',(-1.,9.49923443529546E-17,0.));
#292=FACE_BOUND('',#293,.T.);
#293=EDGE_LOOP('',(#663,#664,#665,#666));
#294=CONICAL_SURFACE('',#295,3.85,0.785398163397445);
#295=AXIS2_PLACEMENT_3D('',#296,#297,#298);
#296=CARTESIAN_POINT('',(-17.5,2.78944154071202,1.65));
#297=DIRECTION('',(0.,0.,1.));
#298=DIRECTION('',(0.16145237802687,0.986880504230106,0.));
#299=FACE_BOUND('',#300,.T.);
#300=EDGE_LOOP('',(#667,#668,#669,#670));
#301=CYLINDRICAL_SURFACE('',#302,0.1);
#302=AXIS2_PLACEMENT_3D('',#303,#304,#305);
#303=CARTESIAN_POINT('',(17.9,7.68944154071202,4.6));
#304=DIRECTION('',(1.,-4.96189061284986E-17,0.));
#305=DIRECTION('',(0.,0.,-1.));
#306=FACE_BOUND('',#307,.T.);
#307=EDGE_LOOP('',(#671,#672,#673,#674));
#308=TOROIDAL_SURFACE('',#309,4.9,0.1);
#309=AXIS2_PLACEMENT_3D('',#310,#311,#312);
#310=CARTESIAN_POINT('',(-17.5,2.78944154071202,4.6));
#311=DIRECTION('',(0.,0.,1.));
#312=DIRECTION('',(0.0408049943282741,0.999167129382202,0.));
#313=FACE_BOUND('',#314,.T.);
#314=EDGE_LOOP('',(#675,#676,#677,#678));
#315=CYLINDRICAL_SURFACE('',#316,0.1);
#316=AXIS2_PLACEMENT_3D('',#317,#318,#319);
#317=CARTESIAN_POINT('',(-17.9,-2.11055845928798,4.6));
#318=DIRECTION('',(-1.,7.44283591927479E-17,0.));
#319=DIRECTION('',(0.,0.,-1.));
#320=FACE_BOUND('',#321,.T.);
#321=EDGE_LOOP('',(#679,#680,#681,#682));
#322=TOROIDAL_SURFACE('',#323,4.9,0.1);
#323=AXIS2_PLACEMENT_3D('',#324,#325,#326);
#324=CARTESIAN_POINT('',(17.5,2.78944154071202,4.6));
#325=DIRECTION('',(0.,0.,1.));
#326=DIRECTION('',(-0.0408049943282748,-0.999167129382202,0.));
#327=FACE_BOUND('',#328,.T.);
#328=EDGE_LOOP('',(#683,#684,#685,#686));
#329=CYLINDRICAL_SURFACE('',#330,0.1);
#330=AXIS2_PLACEMENT_3D('',#331,#332,#333);
#331=CARTESIAN_POINT('',(-17.9,6.88944154071202,4.4));
#332=DIRECTION('',(-1.,9.92378122569972E-17,0.));
#333=DIRECTION('',(-9.92378122569972E-17,-1.,0.));
#334=FACE_BOUND('',#335,.T.);
#335=EDGE_LOOP('',(#687,#688,#689,#690));
#336=TOROIDAL_SURFACE('',#337,4.1,0.1);
#337=AXIS2_PLACEMENT_3D('',#338,#339,#340);
#338=CARTESIAN_POINT('',(17.5,2.78944154071202,4.4));
#339=DIRECTION('',(0.,0.,1.));
#340=DIRECTION('',(-0.0487611442853897,-0.998810467910694,0.));
#341=FACE_BOUND('',#342,.T.);
#342=EDGE_LOOP('',(#691,#692,#693,#694));
#343=CYLINDRICAL_SURFACE('',#344,0.1);
#344=AXIS2_PLACEMENT_3D('',#345,#346,#347);
#345=CARTESIAN_POINT('',(17.9,-1.31055845928798,4.4));
#346=DIRECTION('',(1.,-7.44283591927479E-17,0.));
#347=DIRECTION('',(7.44283591927479E-17,1.,0.));
#348=FACE_BOUND('',#349,.T.);
#349=EDGE_LOOP('',(#695,#696,#697,#698));
#350=TOROIDAL_SURFACE('',#351,4.1,0.1);
#351=AXIS2_PLACEMENT_3D('',#352,#353,#354);
#352=CARTESIAN_POINT('',(-17.5,2.78944154071202,4.4));
#353=DIRECTION('',(0.,0.,1.));
#354=DIRECTION('',(0.0487611442853906,0.998810467910694,0.));
#355=FACE_BOUND('',#356,.T.);
#356=EDGE_LOOP('',(#699,#700,#701,#702));
#357=TOROIDAL_SURFACE('',#358,3.4,0.1);
#358=AXIS2_PLACEMENT_3D('',#359,#360,#361);
#359=CARTESIAN_POINT('',(17.5,2.78944154071202,11.4));
#360=DIRECTION('',(0.,0.,-1.));
#361=DIRECTION('',(-0.0587896116763734,0.998270395012765,0.));
#362=FACE_BOUND('',#363,.T.);
#363=EDGE_LOOP('',(#703,#704,#705,#706));
#364=CYLINDRICAL_SURFACE('',#365,0.1);
#365=AXIS2_PLACEMENT_3D('',#366,#367,#368);
#366=CARTESIAN_POINT('',(-17.9,6.18944154071202,11.4));
#367=DIRECTION('',(1.,-9.92378122569972E-17,0.));
#368=DIRECTION('',(9.92378122569972E-17,1.,0.));
#369=FACE_BOUND('',#370,.T.);
#370=EDGE_LOOP('',(#707,#708,#709,#710));
#371=TOROIDAL_SURFACE('',#372,3.4,0.1);
#372=AXIS2_PLACEMENT_3D('',#373,#374,#375);
#373=CARTESIAN_POINT('',(-17.5,2.78944154071202,11.4));
#374=DIRECTION('',(0.,0.,-1.));
#375=DIRECTION('',(0.0587896116763734,-0.998270395012765,0.));
#376=FACE_BOUND('',#377,.T.);
#377=EDGE_LOOP('',(#711,#712,#713,#714));
#378=CYLINDRICAL_SURFACE('',#379,0.1);
#379=AXIS2_PLACEMENT_3D('',#380,#381,#382);
#380=CARTESIAN_POINT('',(17.9,-0.610558459287984,11.4));
#381=DIRECTION('',(-1.,7.44283591927479E-17,0.));
#382=DIRECTION('',(-7.44283591927479E-17,-1.,0.));
#383=FACE_BOUND('',#384,.T.);
#384=EDGE_LOOP('',(#715,#716,#717,#718));
#385=CYLINDRICAL_SURFACE('',#386,0.1);
#386=AXIS2_PLACEMENT_3D('',#387,#388,#389);
#387=CARTESIAN_POINT('',(-17.9,6.38944154071202,1.6));
#388=DIRECTION('',(-1.,7.44283591927479E-17,0.));
#389=DIRECTION('',(-6.61056624486881E-31,-8.88178419700124E-15,-1.));
#390=FACE_BOUND('',#391,.T.);
#391=EDGE_LOOP('',(#719,#720,#721,#722));
#392=TOROIDAL_SURFACE('',#393,3.6,0.1);
#393=AXIS2_PLACEMENT_3D('',#394,#395,#396);
#394=CARTESIAN_POINT('',(17.5,2.78944154071202,1.6));
#395=DIRECTION('',(0.,0.,-1.));
#396=DIRECTION('',(-0.0555269820047337,0.998457186998744,0.));
#397=FACE_BOUND('',#398,.T.);
#398=EDGE_LOOP('',(#723,#724,#725,#726));
#399=CYLINDRICAL_SURFACE('',#400,0.1);
#400=AXIS2_PLACEMENT_3D('',#401,#402,#403);
#401=CARTESIAN_POINT('',(17.9,-0.810558459287984,1.6));
#402=DIRECTION('',(1.,-7.75295408257791E-17,0.));
#403=DIRECTION('',(0.,0.,-1.));
#404=FACE_BOUND('',#405,.T.);
#405=EDGE_LOOP('',(#727,#728,#729,#730));
#406=TOROIDAL_SURFACE('',#407,3.6,0.1);
#407=AXIS2_PLACEMENT_3D('',#408,#409,#410);
#408=CARTESIAN_POINT('',(-17.5,2.78944154071202,1.6));
#409=DIRECTION('',(0.,0.,-1.));
#410=DIRECTION('',(0.0555269820047337,-0.998457186998745,0.));
#411=FACE_BOUND('',#412,.T.);
#412=EDGE_LOOP('',(#731,#732,#733,#734));
#413=TOROIDAL_SURFACE('',#414,3.9,0.1);
#414=AXIS2_PLACEMENT_3D('',#415,#416,#417);
#415=CARTESIAN_POINT('',(-17.5,2.78944154071202,1.84142135623731));
#416=DIRECTION('',(0.,0.,1.));
#417=DIRECTION('',(0.0499791692706779,0.998750260394966,0.));
#418=FACE_BOUND('',#419,.T.);
#419=EDGE_LOOP('',(#735,#736,#737,#738));
#420=CYLINDRICAL_SURFACE('',#421,0.1);
#421=AXIS2_PLACEMENT_3D('',#422,#423,#424);
#422=CARTESIAN_POINT('',(-17.9,-1.11055845928798,1.84142135623731));
#423=DIRECTION('',(-1.,7.44283591927479E-17,0.));
#424=DIRECTION('',(-5.26287974977802E-17,-0.707106781186547,-0.707106781186547));
#425=FACE_BOUND('',#426,.T.);
#426=EDGE_LOOP('',(#739,#740,#741,#742));
#427=TOROIDAL_SURFACE('',#428,3.9,0.1);
#428=AXIS2_PLACEMENT_3D('',#429,#430,#431);
#429=CARTESIAN_POINT('',(17.5,2.78944154071202,1.84142135623731));
#430=DIRECTION('',(0.,0.,1.));
#431=DIRECTION('',(-0.0499791692706779,-0.998750260394966,0.));
#432=FACE_BOUND('',#433,.T.);
#433=EDGE_LOOP('',(#743,#744,#745,#746));
#434=CYLINDRICAL_SURFACE('',#435,0.1);
#435=AXIS2_PLACEMENT_3D('',#436,#437,#438);
#436=CARTESIAN_POINT('',(17.9,6.68944154071201,1.84142135623731));
#437=DIRECTION('',(1.,-9.92378122569972E-17,0.));
#438=DIRECTION('',(7.01717299970401E-17,0.707106781186546,-0.707106781186549));
#439=FACE_BOUND('',#440,.T.);
#440=EDGE_LOOP('',(#747,#748,#749,#750));
#441=CYLINDRICAL_SURFACE('',#442,0.1);
#442=AXIS2_PLACEMENT_3D('',#443,#444,#445);
#443=CARTESIAN_POINT('',(17.9,6.4480201844747,1.6));
#444=DIRECTION('',(-1.,9.92378122569973E-17,0.));
#445=DIRECTION('',(7.01717299970393E-17,0.707106781186547,-0.707106781186547));
#446=FACE_BOUND('',#447,.T.);
#447=EDGE_LOOP('',(#751,#752,#753,#754));
#448=TOROIDAL_SURFACE('',#449,3.65857864376269,0.1);
#449=AXIS2_PLACEMENT_3D('',#450,#451,#452);
#450=CARTESIAN_POINT('',(-17.5,2.78944154071202,1.6));
#451=DIRECTION('',(0.,0.,1.));
#452=DIRECTION('',(0.0546388151855654,0.998506184194729,0.));
#453=FACE_BOUND('',#454,.T.);
#454=EDGE_LOOP('',(#755,#756,#757,#758));
#455=CYLINDRICAL_SURFACE('',#456,0.1);
#456=AXIS2_PLACEMENT_3D('',#457,#458,#459);
#457=CARTESIAN_POINT('',(-17.9,-0.869137103050672,1.6));
#458=DIRECTION('',(1.,-7.44283591927479E-17,-6.20236326606233E-18));
#459=DIRECTION('',(-5.70145306225953E-17,-0.707106781186549,-0.707106781186546));
#460=FACE_BOUND('',#461,.T.);
#461=EDGE_LOOP('',(#759,#760,#761,#762));
#462=TOROIDAL_SURFACE('',#463,3.65857864376269,0.1);
#463=AXIS2_PLACEMENT_3D('',#464,#465,#466);
#464=CARTESIAN_POINT('',(17.5,2.78944154071202,1.6));
#465=DIRECTION('',(0.,0.,1.));
#466=DIRECTION('',(-0.0546388151855654,-0.998506184194729,0.));
#467=FACE_BOUND('',#468,.T.);
#468=EDGE_LOOP('',(#763,#764,#765,#766));
#469=TOROIDAL_SURFACE('',#470,1.6,0.1);
#470=AXIS2_PLACEMENT_3D('',#471,#472,#473);
#471=CARTESIAN_POINT('',(3.5,2.6,11.6));
#472=DIRECTION('',(0.,0.,1.));
#473=DIRECTION('',(-0.124674733385228,-0.992197667229329,0.));
#474=FACE_BOUND('',#475,.T.);
#475=EDGE_LOOP('',(#767,#768,#769,#770));
#476=CYLINDRICAL_SURFACE('',#477,0.1);
#477=AXIS2_PLACEMENT_3D('',#478,#479,#480);
#478=CARTESIAN_POINT('',(3.9,4.2,11.6));
#479=DIRECTION('',(1.,1.13869028166683E-16,0.));
#480=DIRECTION('',(1.13869028166683E-16,-1.,-1.77635683940026E-14));
#481=FACE_BOUND('',#482,.T.);
#482=EDGE_LOOP('',(#771,#772,#773,#774));
#483=TOROIDAL_SURFACE('',#484,1.6,0.1);
#484=AXIS2_PLACEMENT_3D('',#485,#486,#487);
#485=CARTESIAN_POINT('',(-3.5,2.6,11.6));
#486=DIRECTION('',(0.,0.,1.));
#487=DIRECTION('',(0.124674733385228,0.992197667229329,0.));
#488=FACE_BOUND('',#489,.T.);
#489=EDGE_LOOP('',(#775,#776,#777,#778));
#490=CYLINDRICAL_SURFACE('',#491,0.1);
#491=AXIS2_PLACEMENT_3D('',#492,#493,#494);
#492=CARTESIAN_POINT('',(-3.9,1.,11.6));
#493=DIRECTION('',(-1.,2.84672570416707E-17,0.));
#494=DIRECTION('',(2.84672570416707E-17,1.,-1.77635683940025E-14));
#495=FACE_BOUND('',#496,.T.);
#496=EDGE_LOOP('',(#779,#780,#781,#782));
#497=TOROIDAL_SURFACE('',#498,1.6,0.1);
#498=AXIS2_PLACEMENT_3D('',#499,#500,#501);
#499=CARTESIAN_POINT('',(3.5,2.6,12.4));
#500=DIRECTION('',(0.,0.,1.));
#501=DIRECTION('',(-0.124674733385228,-0.992197667229329,0.));
#502=FACE_BOUND('',#503,.T.);
#503=EDGE_LOOP('',(#783,#784,#785,#786));
#504=CYLINDRICAL_SURFACE('',#505,0.1);
#505=AXIS2_PLACEMENT_3D('',#506,#507,#508);
#506=CARTESIAN_POINT('',(-3.9,1.,12.4));
#507=DIRECTION('',(1.,-2.84672570416707E-17,0.));
#508=DIRECTION('',(2.84672570416707E-17,1.,1.77635683940025E-14));
#509=FACE_BOUND('',#510,.T.);
#510=EDGE_LOOP('',(#787,#788,#789,#790));
#511=TOROIDAL_SURFACE('',#512,1.6,0.1);
#512=AXIS2_PLACEMENT_3D('',#513,#514,#515);
#513=CARTESIAN_POINT('',(-3.5,2.6,12.4));
#514=DIRECTION('',(0.,0.,1.));
#515=DIRECTION('',(0.124674733385228,0.992197667229329,0.));
#516=FACE_BOUND('',#517,.T.);
#517=EDGE_LOOP('',(#791,#792,#793,#794));
#518=CYLINDRICAL_SURFACE('',#519,0.1);
#519=AXIS2_PLACEMENT_3D('',#520,#521,#522);
#520=CARTESIAN_POINT('',(3.9,4.2,12.4));
#521=DIRECTION('',(-1.,-1.13869028166683E-16,0.));
#522=DIRECTION('',(1.13869028166683E-16,-1.,1.77635683940026E-14));
#523=FACE_BOUND('',#524,.T.);
#524=EDGE_LOOP('',(#795,#796,#797,#798));
#525=TOROIDAL_SURFACE('',#526,4.,1.);
#526=AXIS2_PLACEMENT_3D('',#527,#528,#529);
#527=CARTESIAN_POINT('',(17.5,2.78944154071202,11.5));
#528=DIRECTION('',(0.,0.,1.));
#529=DIRECTION('',(-0.479425538604203,-0.877582561890373,0.));
#530=FACE_BOUND('',#531,.T.);
#531=EDGE_LOOP('',(#799,#800,#801,#802));
#532=CYLINDRICAL_SURFACE('',#533,1.);
#533=AXIS2_PLACEMENT_3D('',#534,#535,#536);
#534=CARTESIAN_POINT('',(21.5,6.78944154071202,11.5));
#535=DIRECTION('',(-1.,4.13106241720988E-17,0.));
#536=DIRECTION('',(0.,0.,1.));
#537=FACE_BOUND('',#538,.T.);
#538=EDGE_LOOP('',(#803,#804,#805,#806));
#539=TOROIDAL_SURFACE('',#540,4.,1.);
#540=AXIS2_PLACEMENT_3D('',#541,#542,#543);
#541=CARTESIAN_POINT('',(-17.5,2.78944154071202,11.5));
#542=DIRECTION('',(0.,0.,1.));
#543=DIRECTION('',(0.479425538604203,0.877582561890373,0.));
#544=FACE_BOUND('',#545,.T.);
#545=EDGE_LOOP('',(#807,#808,#809,#810));
#546=CYLINDRICAL_SURFACE('',#547,1.);
#547=AXIS2_PLACEMENT_3D('',#548,#549,#550);
#548=CARTESIAN_POINT('',(-21.5,-1.21055845928798,11.5));
#549=DIRECTION('',(1.,-8.26212483441977E-17,0.));
#550=DIRECTION('',(-1.83456024470003E-32,-2.22044604925031E-16,1.));
#551=COMPOSITE_CURVE_SEGMENT(.CONT_SAME_GRADIENT.,.T.,#811);
#552=COMPOSITE_CURVE_SEGMENT(.CONT_SAME_GRADIENT.,.T.,#812);
#553=COMPOSITE_CURVE_SEGMENT(.CONT_SAME_GRADIENT.,.T.,#813);
#554=COMPOSITE_CURVE_SEGMENT(.DISCONTINUOUS.,.T.,#814);
#555=ORIENTED_EDGE('',*,*,#815,.F.);
#556=ORIENTED_EDGE('',*,*,#816,.F.);
#557=ORIENTED_EDGE('',*,*,#817,.F.);
#558=ORIENTED_EDGE('',*,*,#818,.F.);
#559=ORIENTED_EDGE('',*,*,#819,.F.);
#560=ORIENTED_EDGE('',*,*,#820,.F.);
#561=ORIENTED_EDGE('',*,*,#821,.F.);
#562=ORIENTED_EDGE('',*,*,#822,.F.);
#563=ORIENTED_EDGE('',*,*,#823,.F.);
#564=ORIENTED_EDGE('',*,*,#824,.F.);
#565=ORIENTED_EDGE('',*,*,#825,.F.);
#566=ORIENTED_EDGE('',*,*,#826,.F.);
#567=ORIENTED_EDGE('',*,*,#827,.T.);
#568=ORIENTED_EDGE('',*,*,#828,.T.);
#569=ORIENTED_EDGE('',*,*,#829,.T.);
#570=ORIENTED_EDGE('',*,*,#830,.T.);
#571=ORIENTED_EDGE('',*,*,#831,.T.);
#572=ORIENTED_EDGE('',*,*,#832,.T.);
#573=ORIENTED_EDGE('',*,*,#833,.T.);
#574=ORIENTED_EDGE('',*,*,#834,.F.);
#575=ORIENTED_EDGE('',*,*,#835,.T.);
#576=ORIENTED_EDGE('',*,*,#834,.T.);
#577=ORIENTED_EDGE('',*,*,#836,.T.);
#578=ORIENTED_EDGE('',*,*,#837,.F.);
#579=ORIENTED_EDGE('',*,*,#838,.T.);
#580=ORIENTED_EDGE('',*,*,#837,.T.);
#581=ORIENTED_EDGE('',*,*,#839,.T.);
#582=ORIENTED_EDGE('',*,*,#840,.F.);
#583=ORIENTED_EDGE('',*,*,#841,.T.);
#584=ORIENTED_EDGE('',*,*,#840,.T.);
#585=ORIENTED_EDGE('',*,*,#842,.T.);
#586=ORIENTED_EDGE('',*,*,#832,.F.);
#587=ORIENTED_EDGE('',*,*,#843,.T.);
#588=ORIENTED_EDGE('',*,*,#844,.T.);
#589=ORIENTED_EDGE('',*,*,#845,.T.);
#590=ORIENTED_EDGE('',*,*,#846,.F.);
#591=ORIENTED_EDGE('',*,*,#847,.T.);
#592=ORIENTED_EDGE('',*,*,#846,.T.);
#593=ORIENTED_EDGE('',*,*,#848,.T.);
#594=ORIENTED_EDGE('',*,*,#849,.F.);
#595=ORIENTED_EDGE('',*,*,#850,.T.);
#596=ORIENTED_EDGE('',*,*,#849,.T.);
#597=ORIENTED_EDGE('',*,*,#851,.T.);
#598=ORIENTED_EDGE('',*,*,#852,.F.);
#599=ORIENTED_EDGE('',*,*,#853,.T.);
#600=ORIENTED_EDGE('',*,*,#852,.T.);
#601=ORIENTED_EDGE('',*,*,#854,.T.);
#602=ORIENTED_EDGE('',*,*,#844,.F.);
#603=ORIENTED_EDGE('',*,*,#855,.T.);
#604=ORIENTED_EDGE('',*,*,#856,.F.);
#605=ORIENTED_EDGE('',*,*,#857,.T.);
#606=ORIENTED_EDGE('',*,*,#858,.F.);
#607=ORIENTED_EDGE('',*,*,#859,.F.);
#608=ORIENTED_EDGE('',*,*,#860,.F.);
#609=ORIENTED_EDGE('',*,*,#861,.T.);
#610=ORIENTED_EDGE('',*,*,#856,.T.);
#611=ORIENTED_EDGE('',*,*,#862,.T.);
#612=ORIENTED_EDGE('',*,*,#863,.F.);
#613=ORIENTED_EDGE('',*,*,#864,.T.);
#614=ORIENTED_EDGE('',*,*,#860,.T.);
#615=ORIENTED_EDGE('',*,*,#865,.F.);
#616=ORIENTED_EDGE('',*,*,#858,.T.);
#617=ORIENTED_EDGE('',*,*,#866,.T.);
#618=ORIENTED_EDGE('',*,*,#863,.T.);
#619=ORIENTED_EDGE('',*,*,#867,.F.);
#620=ORIENTED_EDGE('',*,*,#868,.F.);
#621=ORIENTED_EDGE('',*,*,#869,.F.);
#622=ORIENTED_EDGE('',*,*,#870,.T.);
#623=ORIENTED_EDGE('',*,*,#871,.F.);
#624=ORIENTED_EDGE('',*,*,#872,.F.);
#625=ORIENTED_EDGE('',*,*,#873,.F.);
#626=ORIENTED_EDGE('',*,*,#868,.T.);
#627=ORIENTED_EDGE('',*,*,#874,.F.);
#628=ORIENTED_EDGE('',*,*,#875,.F.);
#629=ORIENTED_EDGE('',*,*,#876,.F.);
#630=ORIENTED_EDGE('',*,*,#872,.T.);
#631=ORIENTED_EDGE('',*,*,#877,.F.);
#632=ORIENTED_EDGE('',*,*,#870,.F.);
#633=ORIENTED_EDGE('',*,*,#878,.F.);
#634=ORIENTED_EDGE('',*,*,#875,.T.);
#635=ORIENTED_EDGE('',*,*,#879,.F.);
#636=ORIENTED_EDGE('',*,*,#880,.F.);
#637=ORIENTED_EDGE('',*,*,#881,.F.);
#638=ORIENTED_EDGE('',*,*,#882,.F.);
#639=ORIENTED_EDGE('',*,*,#883,.F.);
#640=ORIENTED_EDGE('',*,*,#884,.F.);
#641=ORIENTED_EDGE('',*,*,#885,.F.);
#642=ORIENTED_EDGE('',*,*,#886,.F.);
#643=ORIENTED_EDGE('',*,*,#887,.T.);
#644=ORIENTED_EDGE('',*,*,#888,.F.);
#645=ORIENTED_EDGE('',*,*,#889,.T.);
#646=ORIENTED_EDGE('',*,*,#890,.F.);
#647=ORIENTED_EDGE('',*,*,#891,.T.);
#648=ORIENTED_EDGE('',*,*,#892,.T.);
#649=ORIENTED_EDGE('',*,*,#893,.T.);
#650=ORIENTED_EDGE('',*,*,#894,.T.);
#651=ORIENTED_EDGE('',*,*,#895,.T.);
#652=ORIENTED_EDGE('',*,*,#896,.T.);
#653=ORIENTED_EDGE('',*,*,#897,.F.);
#654=ORIENTED_EDGE('',*,*,#898,.F.);
#655=ORIENTED_EDGE('',*,*,#899,.T.);
#656=ORIENTED_EDGE('',*,*,#900,.T.);
#657=ORIENTED_EDGE('',*,*,#901,.F.);
#658=ORIENTED_EDGE('',*,*,#896,.F.);
#659=ORIENTED_EDGE('',*,*,#902,.T.);
#660=ORIENTED_EDGE('',*,*,#903,.T.);
#661=ORIENTED_EDGE('',*,*,#904,.F.);
#662=ORIENTED_EDGE('',*,*,#900,.F.);
#663=ORIENTED_EDGE('',*,*,#905,.T.);
#664=ORIENTED_EDGE('',*,*,#898,.T.);
#665=ORIENTED_EDGE('',*,*,#906,.F.);
#666=ORIENTED_EDGE('',*,*,#903,.F.);
#667=ORIENTED_EDGE('',*,*,#864,.F.);
#668=ORIENTED_EDGE('',*,*,#907,.F.);
#669=ORIENTED_EDGE('',*,*,#815,.T.);
#670=ORIENTED_EDGE('',*,*,#908,.T.);
#671=ORIENTED_EDGE('',*,*,#861,.F.);
#672=ORIENTED_EDGE('',*,*,#908,.F.);
#673=ORIENTED_EDGE('',*,*,#818,.T.);
#674=ORIENTED_EDGE('',*,*,#909,.T.);
#675=ORIENTED_EDGE('',*,*,#857,.F.);
#676=ORIENTED_EDGE('',*,*,#909,.F.);
#677=ORIENTED_EDGE('',*,*,#817,.T.);
#678=ORIENTED_EDGE('',*,*,#910,.T.);
#679=ORIENTED_EDGE('',*,*,#866,.F.);
#680=ORIENTED_EDGE('',*,*,#910,.F.);
#681=ORIENTED_EDGE('',*,*,#816,.T.);
#682=ORIENTED_EDGE('',*,*,#907,.T.);
#683=ORIENTED_EDGE('',*,*,#819,.T.);
#684=ORIENTED_EDGE('',*,*,#911,.T.);
#685=ORIENTED_EDGE('',*,*,#848,.F.);
#686=ORIENTED_EDGE('',*,*,#912,.F.);
#687=ORIENTED_EDGE('',*,*,#822,.T.);
#688=ORIENTED_EDGE('',*,*,#913,.T.);
#689=ORIENTED_EDGE('',*,*,#851,.F.);
#690=ORIENTED_EDGE('',*,*,#911,.F.);
#691=ORIENTED_EDGE('',*,*,#821,.T.);
#692=ORIENTED_EDGE('',*,*,#914,.T.);
#693=ORIENTED_EDGE('',*,*,#854,.F.);
#694=ORIENTED_EDGE('',*,*,#913,.F.);
#695=ORIENTED_EDGE('',*,*,#820,.T.);
#696=ORIENTED_EDGE('',*,*,#912,.T.);
#697=ORIENTED_EDGE('',*,*,#845,.F.);
#698=ORIENTED_EDGE('',*,*,#914,.F.);
#699=ORIENTED_EDGE('',*,*,#823,.T.);
#700=ORIENTED_EDGE('',*,*,#915,.T.);
#701=ORIENTED_EDGE('',*,*,#836,.F.);
#702=ORIENTED_EDGE('',*,*,#916,.F.);
#703=ORIENTED_EDGE('',*,*,#826,.T.);
#704=ORIENTED_EDGE('',*,*,#917,.T.);
#705=ORIENTED_EDGE('',*,*,#839,.F.);
#706=ORIENTED_EDGE('',*,*,#915,.F.);
#707=ORIENTED_EDGE('',*,*,#825,.T.);
#708=ORIENTED_EDGE('',*,*,#918,.T.);
#709=ORIENTED_EDGE('',*,*,#842,.F.);
#710=ORIENTED_EDGE('',*,*,#917,.F.);
#711=ORIENTED_EDGE('',*,*,#824,.T.);
#712=ORIENTED_EDGE('',*,*,#916,.T.);
#713=ORIENTED_EDGE('',*,*,#833,.F.);
#714=ORIENTED_EDGE('',*,*,#918,.F.);
#715=ORIENTED_EDGE('',*,*,#838,.F.);
#716=ORIENTED_EDGE('',*,*,#919,.F.);
#717=ORIENTED_EDGE('',*,*,#883,.T.);
#718=ORIENTED_EDGE('',*,*,#920,.T.);
#719=ORIENTED_EDGE('',*,*,#835,.F.);
#720=ORIENTED_EDGE('',*,*,#920,.F.);
#721=ORIENTED_EDGE('',*,*,#886,.T.);
#722=ORIENTED_EDGE('',*,*,#921,.T.);
#723=ORIENTED_EDGE('',*,*,#831,.F.);
#724=ORIENTED_EDGE('',*,*,#921,.F.);
#725=ORIENTED_EDGE('',*,*,#885,.T.);
#726=ORIENTED_EDGE('',*,*,#922,.T.);
#727=ORIENTED_EDGE('',*,*,#841,.F.);
#728=ORIENTED_EDGE('',*,*,#922,.F.);
#729=ORIENTED_EDGE('',*,*,#884,.T.);
#730=ORIENTED_EDGE('',*,*,#919,.T.);
#731=ORIENTED_EDGE('',*,*,#843,.F.);
#732=ORIENTED_EDGE('',*,*,#923,.F.);
#733=ORIENTED_EDGE('',*,*,#906,.T.);
#734=ORIENTED_EDGE('',*,*,#924,.T.);
#735=ORIENTED_EDGE('',*,*,#853,.F.);
#736=ORIENTED_EDGE('',*,*,#924,.F.);
#737=ORIENTED_EDGE('',*,*,#897,.T.);
#738=ORIENTED_EDGE('',*,*,#925,.T.);
#739=ORIENTED_EDGE('',*,*,#850,.F.);
#740=ORIENTED_EDGE('',*,*,#925,.F.);
#741=ORIENTED_EDGE('',*,*,#901,.T.);
#742=ORIENTED_EDGE('',*,*,#926,.T.);
#743=ORIENTED_EDGE('',*,*,#847,.F.);
#744=ORIENTED_EDGE('',*,*,#926,.F.);
#745=ORIENTED_EDGE('',*,*,#904,.T.);
#746=ORIENTED_EDGE('',*,*,#923,.T.);
#747=ORIENTED_EDGE('',*,*,#879,.T.);
#748=ORIENTED_EDGE('',*,*,#927,.T.);
#749=ORIENTED_EDGE('',*,*,#902,.F.);
#750=ORIENTED_EDGE('',*,*,#928,.F.);
#751=ORIENTED_EDGE('',*,*,#882,.T.);
#752=ORIENTED_EDGE('',*,*,#929,.T.);
#753=ORIENTED_EDGE('',*,*,#905,.F.);
#754=ORIENTED_EDGE('',*,*,#927,.F.);
#755=ORIENTED_EDGE('',*,*,#881,.T.);
#756=ORIENTED_EDGE('',*,*,#930,.T.);
#757=ORIENTED_EDGE('',*,*,#895,.F.);
#758=ORIENTED_EDGE('',*,*,#929,.F.);
#759=ORIENTED_EDGE('',*,*,#880,.T.);
#760=ORIENTED_EDGE('',*,*,#928,.T.);
#761=ORIENTED_EDGE('',*,*,#899,.F.);
#762=ORIENTED_EDGE('',*,*,#930,.F.);
#763=ORIENTED_EDGE('',*,*,#827,.F.);
#764=ORIENTED_EDGE('',*,*,#931,.F.);
#765=ORIENTED_EDGE('',*,*,#869,.T.);
#766=ORIENTED_EDGE('',*,*,#932,.T.);
#767=ORIENTED_EDGE('',*,*,#828,.F.);
#768=ORIENTED_EDGE('',*,*,#932,.F.);
#769=ORIENTED_EDGE('',*,*,#873,.T.);
#770=ORIENTED_EDGE('',*,*,#933,.T.);
#771=ORIENTED_EDGE('',*,*,#829,.F.);
#772=ORIENTED_EDGE('',*,*,#933,.F.);
#773=ORIENTED_EDGE('',*,*,#876,.T.);
#774=ORIENTED_EDGE('',*,*,#934,.T.);
#775=ORIENTED_EDGE('',*,*,#830,.F.);
#776=ORIENTED_EDGE('',*,*,#934,.F.);
#777=ORIENTED_EDGE('',*,*,#878,.T.);
#778=ORIENTED_EDGE('',*,*,#931,.T.);
#779=ORIENTED_EDGE('',*,*,#891,.F.);
#780=ORIENTED_EDGE('',*,*,#935,.F.);
#781=ORIENTED_EDGE('',*,*,#867,.T.);
#782=ORIENTED_EDGE('',*,*,#936,.T.);
#783=ORIENTED_EDGE('',*,*,#892,.F.);
#784=ORIENTED_EDGE('',*,*,#936,.F.);
#785=ORIENTED_EDGE('',*,*,#877,.T.);
#786=ORIENTED_EDGE('',*,*,#937,.T.);
#787=ORIENTED_EDGE('',*,*,#893,.F.);
#788=ORIENTED_EDGE('',*,*,#937,.F.);
#789=ORIENTED_EDGE('',*,*,#874,.T.);
#790=ORIENTED_EDGE('',*,*,#938,.T.);
#791=ORIENTED_EDGE('',*,*,#894,.F.);
#792=ORIENTED_EDGE('',*,*,#938,.F.);
#793=ORIENTED_EDGE('',*,*,#871,.T.);
#794=ORIENTED_EDGE('',*,*,#935,.T.);
#795=ORIENTED_EDGE('',*,*,#865,.T.);
#796=ORIENTED_EDGE('',*,*,#939,.T.);
#797=ORIENTED_EDGE('',*,*,#887,.F.);
#798=ORIENTED_EDGE('',*,*,#940,.F.);
#799=ORIENTED_EDGE('',*,*,#862,.F.);
#800=ORIENTED_EDGE('',*,*,#941,.T.);
#801=ORIENTED_EDGE('',*,*,#888,.T.);
#802=ORIENTED_EDGE('',*,*,#939,.F.);
#803=ORIENTED_EDGE('',*,*,#859,.T.);
#804=ORIENTED_EDGE('',*,*,#942,.T.);
#805=ORIENTED_EDGE('',*,*,#889,.F.);
#806=ORIENTED_EDGE('',*,*,#941,.F.);
#807=ORIENTED_EDGE('',*,*,#855,.F.);
#808=ORIENTED_EDGE('',*,*,#940,.T.);
#809=ORIENTED_EDGE('',*,*,#890,.T.);
#810=ORIENTED_EDGE('',*,*,#942,.F.);
#811=POLYLINE('',(#943,#944));
#812=TRIMMED_CURVE('',#945,(PARAMETER_VALUE(0.)),(PARAMETER_VALUE(3.14159265358979)),
.T.,.PARAMETER.);
#813=POLYLINE('',(#946,#947));
#814=TRIMMED_CURVE('',#948,(PARAMETER_VALUE(0.)),(PARAMETER_VALUE(3.14159265358979)),
.T.,.PARAMETER.);
#815=EDGE_CURVE('',#949,#950,#951,.T.);
#816=EDGE_CURVE('',#952,#949,#953,.T.);
#817=EDGE_CURVE('',#954,#952,#955,.T.);
#818=EDGE_CURVE('',#950,#954,#956,.T.);
#819=EDGE_CURVE('',#957,#958,#959,.T.);
#820=EDGE_CURVE('',#960,#957,#961,.F.);
#821=EDGE_CURVE('',#962,#960,#963,.T.);
#822=EDGE_CURVE('',#958,#962,#964,.F.);
#823=EDGE_CURVE('',#965,#966,#967,.F.);
#824=EDGE_CURVE('',#968,#965,#969,.F.);
#825=EDGE_CURVE('',#970,#968,#971,.F.);
#826=EDGE_CURVE('',#966,#970,#972,.F.);
#827=EDGE_CURVE('',#973,#974,#975,.T.);
#828=EDGE_CURVE('',#974,#976,#977,.T.);
#829=EDGE_CURVE('',#976,#978,#979,.T.);
#830=EDGE_CURVE('',#978,#973,#980,.T.);
#831=EDGE_CURVE('',#981,#982,#983,.T.);
#832=EDGE_CURVE('',#982,#984,#985,.T.);
#833=EDGE_CURVE('',#984,#986,#987,.F.);
#834=EDGE_CURVE('',#981,#986,#988,.T.);
#835=EDGE_CURVE('',#989,#981,#990,.T.);
#836=EDGE_CURVE('',#986,#991,#992,.F.);
#837=EDGE_CURVE('',#989,#991,#993,.T.);
#838=EDGE_CURVE('',#994,#989,#995,.T.);
#839=EDGE_CURVE('',#991,#996,#997,.F.);
#840=EDGE_CURVE('',#994,#996,#998,.T.);
#841=EDGE_CURVE('',#982,#994,#999,.T.);
#842=EDGE_CURVE('',#996,#984,#1000,.F.);
#843=EDGE_CURVE('',#1001,#1002,#1003,.T.);
#844=EDGE_CURVE('',#1002,#1004,#1005,.T.);
#845=EDGE_CURVE('',#1004,#1006,#1007,.F.);
#846=EDGE_CURVE('',#1001,#1006,#1008,.T.);
#847=EDGE_CURVE('',#1009,#1001,#1010,.T.);
#848=EDGE_CURVE('',#1006,#1011,#1012,.T.);
#849=EDGE_CURVE('',#1009,#1011,#1013,.T.);
#850=EDGE_CURVE('',#1014,#1009,#1015,.T.);
#851=EDGE_CURVE('',#1011,#1016,#1017,.F.);
#852=EDGE_CURVE('',#1014,#1016,#1018,.T.);
#853=EDGE_CURVE('',#1002,#1014,#1019,.T.);
#854=EDGE_CURVE('',#1016,#1004,#1020,.T.);
#855=EDGE_CURVE('',#1021,#1022,#1023,.F.);
#856=EDGE_CURVE('',#1024,#1022,#1025,.T.);
#857=EDGE_CURVE('',#1024,#1026,#1027,.T.);
#858=EDGE_CURVE('',#1021,#1026,#1028,.F.);
#859=EDGE_CURVE('',#1029,#1022,#1030,.T.);
#860=EDGE_CURVE('',#1031,#1029,#1032,.T.);
#861=EDGE_CURVE('',#1031,#1024,#1033,.T.);
#862=EDGE_CURVE('',#1029,#1034,#1035,.F.);
#863=EDGE_CURVE('',#1036,#1034,#1037,.T.);
#864=EDGE_CURVE('',#1036,#1031,#1038,.T.);
#865=EDGE_CURVE('',#1021,#1034,#1039,.T.);
#866=EDGE_CURVE('',#1026,#1036,#1040,.T.);
#867=EDGE_CURVE('',#1041,#1042,#1043,.F.);
#868=EDGE_CURVE('',#1044,#1041,#1045,.T.);
#869=EDGE_CURVE('',#1046,#1044,#1047,.T.);
#870=EDGE_CURVE('',#1046,#1042,#1048,.T.);
#871=EDGE_CURVE('',#1049,#1041,#1050,.F.);
#872=EDGE_CURVE('',#1051,#1049,#1052,.T.);
#873=EDGE_CURVE('',#1044,#1051,#1053,.T.);
#874=EDGE_CURVE('',#1054,#1049,#1055,.F.);
#875=EDGE_CURVE('',#1056,#1054,#1057,.T.);
#876=EDGE_CURVE('',#1051,#1056,#1058,.T.);
#877=EDGE_CURVE('',#1042,#1054,#1059,.F.);
#878=EDGE_CURVE('',#1056,#1046,#1060,.T.);
#879=EDGE_CURVE('',#1061,#1062,#1063,.T.);
#880=EDGE_CURVE('',#1064,#1061,#1065,.T.);
#881=EDGE_CURVE('',#1066,#1064,#1067,.T.);
#882=EDGE_CURVE('',#1062,#1066,#1068,.T.);
#883=EDGE_CURVE('',#1069,#1070,#1071,.T.);
#884=EDGE_CURVE('',#1072,#1069,#1073,.T.);
#885=EDGE_CURVE('',#1074,#1072,#1075,.T.);
#886=EDGE_CURVE('',#1070,#1074,#1076,.T.);
#887=EDGE_CURVE('',#1077,#1078,#1079,.T.);
#888=EDGE_CURVE('',#1080,#1078,#1081,.F.);
#889=EDGE_CURVE('',#1080,#1082,#1083,.T.);
#890=EDGE_CURVE('',#1077,#1082,#1084,.F.);
#891=EDGE_CURVE('',#1085,#1086,#1087,.F.);
#892=EDGE_CURVE('',#1086,#1088,#1089,.F.);
#893=EDGE_CURVE('',#1088,#1090,#1091,.F.);
#894=EDGE_CURVE('',#1090,#1085,#1092,.F.);
#895=EDGE_CURVE('',#1093,#1094,#1095,.T.);
#896=EDGE_CURVE('',#1094,#1096,#1097,.F.);
#897=EDGE_CURVE('',#1098,#1096,#1099,.T.);
#898=EDGE_CURVE('',#1093,#1098,#1100,.F.);
#899=EDGE_CURVE('',#1094,#1101,#1102,.T.);
#900=EDGE_CURVE('',#1101,#1103,#1104,.F.);
#901=EDGE_CURVE('',#1096,#1103,#1105,.T.);
#902=EDGE_CURVE('',#1101,#1106,#1107,.T.);
#903=EDGE_CURVE('',#1106,#1108,#1109,.F.);
#904=EDGE_CURVE('',#1103,#1108,#1110,.T.);
#905=EDGE_CURVE('',#1106,#1093,#1111,.T.);
#906=EDGE_CURVE('',#1108,#1098,#1112,.T.);
#907=EDGE_CURVE('',#949,#1036,#1113,.F.);
#908=EDGE_CURVE('',#950,#1031,#1114,.F.);
#909=EDGE_CURVE('',#954,#1024,#1115,.F.);
#910=EDGE_CURVE('',#952,#1026,#1116,.F.);
#911=EDGE_CURVE('',#958,#1011,#1117,.T.);
#912=EDGE_CURVE('',#957,#1006,#1118,.T.);
#913=EDGE_CURVE('',#962,#1016,#1119,.T.);
#914=EDGE_CURVE('',#960,#1004,#1120,.T.);
#915=EDGE_CURVE('',#966,#991,#1121,.T.);
#916=EDGE_CURVE('',#965,#986,#1122,.T.);
#917=EDGE_CURVE('',#970,#996,#1123,.T.);
#918=EDGE_CURVE('',#968,#984,#1124,.T.);
#919=EDGE_CURVE('',#1069,#994,#1125,.F.);
#920=EDGE_CURVE('',#1070,#989,#1126,.F.);
#921=EDGE_CURVE('',#1074,#981,#1127,.F.);
#922=EDGE_CURVE('',#1072,#982,#1128,.F.);
#923=EDGE_CURVE('',#1108,#1001,#1129,.F.);
#924=EDGE_CURVE('',#1098,#1002,#1130,.F.);
#925=EDGE_CURVE('',#1096,#1014,#1131,.F.);
#926=EDGE_CURVE('',#1103,#1009,#1132,.F.);
#927=EDGE_CURVE('',#1062,#1106,#1133,.T.);
#928=EDGE_CURVE('',#1061,#1101,#1134,.T.);
#929=EDGE_CURVE('',#1066,#1093,#1135,.T.);
#930=EDGE_CURVE('',#1064,#1094,#1136,.T.);
#931=EDGE_CURVE('',#1046,#973,#1137,.F.);
#932=EDGE_CURVE('',#1044,#974,#1138,.F.);
#933=EDGE_CURVE('',#1051,#976,#1139,.F.);
#934=EDGE_CURVE('',#1056,#978,#1140,.F.);
#935=EDGE_CURVE('',#1041,#1085,#1141,.F.);
#936=EDGE_CURVE('',#1042,#1086,#1142,.F.);
#937=EDGE_CURVE('',#1054,#1088,#1143,.F.);
#938=EDGE_CURVE('',#1049,#1090,#1144,.F.);
#939=EDGE_CURVE('',#1034,#1078,#1145,.T.);
#940=EDGE_CURVE('',#1021,#1077,#1146,.T.);
#941=EDGE_CURVE('',#1029,#1080,#1147,.T.);
#942=EDGE_CURVE('',#1022,#1082,#1148,.T.);
#943=CARTESIAN_POINT('',(-17.5,-1.21055845928798,11.5));
#944=CARTESIAN_POINT('',(17.5,-1.21055845928798,11.5));
#945=CIRCLE('',#1149,4.);
#946=CARTESIAN_POINT('',(17.5,6.78944154071202,11.5));
#947=CARTESIAN_POINT('',(-17.5,6.78944154071202,11.5));
#948=CIRCLE('',#1153,4.);
#949=VERTEX_POINT('',#1157);
#950=VERTEX_POINT('',#1158);
#951=LINE('',#1159,#1160);
#952=VERTEX_POINT('',#1162);
#953=CIRCLE('',#1163,4.9);
#954=VERTEX_POINT('',#1167);
#955=LINE('',#1168,#1169);
#956=CIRCLE('',#1171,4.9);
#957=VERTEX_POINT('',#1175);
#958=VERTEX_POINT('',#1176);
#959=LINE('',#1177,#1178);
#960=VERTEX_POINT('',#1180);
#961=CIRCLE('',#1181,4.1);
#962=VERTEX_POINT('',#1185);
#963=LINE('',#1186,#1187);
#964=CIRCLE('',#1189,4.1);
#965=VERTEX_POINT('',#1193);
#966=VERTEX_POINT('',#1194);
#967=CIRCLE('',#1195,3.4);
#968=VERTEX_POINT('',#1199);
#969=LINE('',#1200,#1201);
#970=VERTEX_POINT('',#1203);
#971=CIRCLE('',#1204,3.4);
#972=LINE('',#1208,#1209);
#973=VERTEX_POINT('',#1211);
#974=VERTEX_POINT('',#1212);
#975=CIRCLE('',#1213,1.6);
#976=VERTEX_POINT('',#1217);
#977=LINE('',#1218,#1219);
#978=VERTEX_POINT('',#1221);
#979=CIRCLE('',#1222,1.6);
#980=LINE('',#1226,#1227);
#981=VERTEX_POINT('',#1229);
#982=VERTEX_POINT('',#1230);
#983=LINE('',#1231,#1232);
#984=VERTEX_POINT('',#1234);
#985=LINE('',#1235,#1236);
#986=VERTEX_POINT('',#1238);
#987=LINE('',#1239,#1240);
#988=LINE('',#1242,#1243);
#989=VERTEX_POINT('',#1245);
#990=CIRCLE('',#1246,3.5);
#991=VERTEX_POINT('',#1250);
#992=CIRCLE('',#1251,3.5);
#993=LINE('',#1255,#1256);
#994=VERTEX_POINT('',#1258);
#995=LINE('',#1259,#1260);
#996=VERTEX_POINT('',#1262);
#997=LINE('',#1263,#1264);
#998=LINE('',#1266,#1267);
#999=CIRCLE('',#1269,3.5);
#1000=CIRCLE('',#1273,3.5);
#1001=VERTEX_POINT('',#1277);
#1002=VERTEX_POINT('',#1278);
#1003=CIRCLE('',#1279,4.);
#1004=VERTEX_POINT('',#1283);
#1005=LINE('',#1284,#1285);
#1006=VERTEX_POINT('',#1287);
#1007=CIRCLE('',#1288,4.);
#1008=LINE('',#1292,#1293);
#1009=VERTEX_POINT('',#1295);
#1010=LINE('',#1296,#1297);
#1011=VERTEX_POINT('',#1299);
#1012=LINE('',#1300,#1301);
#1013=LINE('',#1303,#1304);
#1014=VERTEX_POINT('',#1306);
#1015=CIRCLE('',#1307,4.);
#1016=VERTEX_POINT('',#1311);
#1017=CIRCLE('',#1312,4.);
#1018=LINE('',#1316,#1317);
#1019=LINE('',#1319,#1320);
#1020=LINE('',#1322,#1323);
#1021=VERTEX_POINT('',#1325);
#1022=VERTEX_POINT('',#1326);
#1023=LINE('',#1327,#1328);
#1024=VERTEX_POINT('',#1330);
#1025=LINE('',#1331,#1332);
#1026=VERTEX_POINT('',#1334);
#1027=LINE('',#1335,#1336);
#1028=LINE('',#1338,#1339);
#1029=VERTEX_POINT('',#1341);
#1030=CIRCLE('',#1342,5.);
#1031=VERTEX_POINT('',#1346);
#1032=LINE('',#1347,#1348);
#1033=CIRCLE('',#1350,5.);
#1034=VERTEX_POINT('',#1354);
#1035=LINE('',#1355,#1356);
#1036=VERTEX_POINT('',#1358);
#1037=LINE('',#1359,#1360);
#1038=LINE('',#1362,#1363);
#1039=CIRCLE('',#1365,5.);
#1040=CIRCLE('',#1369,5.);
#1041=VERTEX_POINT('',#1373);
#1042=VERTEX_POINT('',#1374);
#1043=CIRCLE('',#1375,1.5);
#1044=VERTEX_POINT('',#1379);
#1045=LINE('',#1380,#1381);
#1046=VERTEX_POINT('',#1383);
#1047=CIRCLE('',#1384,1.5);
#1048=LINE('',#1388,#1389);
#1049=VERTEX_POINT('',#1391);
#1050=LINE('',#1392,#1393);
#1051=VERTEX_POINT('',#1395);
#1052=LINE('',#1396,#1397);
#1053=LINE('',#1399,#1400);
#1054=VERTEX_POINT('',#1402);
#1055=CIRCLE('',#1403,1.5);
#1056=VERTEX_POINT('',#1407);
#1057=LINE('',#1408,#1409);
#1058=CIRCLE('',#1411,1.5);
#1059=LINE('',#1415,#1416);
#1060=LINE('',#1418,#1419);
#1061=VERTEX_POINT('',#1421);
#1062=VERTEX_POINT('',#1422);
#1063=LINE('',#1423,#1424);
#1064=VERTEX_POINT('',#1426);
#1065=CIRCLE('',#1427,3.65857864376269);
#1066=VERTEX_POINT('',#1431);
#1067=LINE('',#1432,#1433);
#1068=CIRCLE('',#1435,3.65857864376269);
#1069=VERTEX_POINT('',#1439);
#1070=VERTEX_POINT('',#1440);
#1071=LINE('',#1441,#1442);
#1072=VERTEX_POINT('',#1444);
#1073=CIRCLE('',#1445,3.6);
#1074=VERTEX_POINT('',#1449);
#1075=LINE('',#1450,#1451);
#1076=CIRCLE('',#1453,3.6);
#1077=VERTEX_POINT('',#1457);
#1078=VERTEX_POINT('',#1458);
#1079=CIRCLE('',#1459,4.);
#1080=VERTEX_POINT('',#1463);
#1081=LINE('',#1464,#1465);
#1082=VERTEX_POINT('',#1467);
#1083=CIRCLE('',#1468,4.);
#1084=LINE('',#1472,#1473);
#1085=VERTEX_POINT('',#1475);
#1086=VERTEX_POINT('',#1476);
#1087=CIRCLE('',#1477,1.6);
#1088=VERTEX_POINT('',#1481);
#1089=LINE('',#1482,#1483);
#1090=VERTEX_POINT('',#1485);
#1091=CIRCLE('',#1486,1.6);
#1092=LINE('',#1490,#1491);
#1093=VERTEX_POINT('',#1493);
#1094=VERTEX_POINT('',#1494);
#1095=LINE('',#1495,#1496);
#1096=VERTEX_POINT('',#1498);
#1097=LINE('',#1499,#1500);
#1098=VERTEX_POINT('',#1502);
#1099=LINE('',#1503,#1504);
#1100=LINE('',#1506,#1507);
#1101=VERTEX_POINT('',#1509);
#1102=CIRCLE('',#1510,3.72928932188134);
#1103=VERTEX_POINT('',#1514);
#1104=LINE('',#1515,#1516);
#1105=CIRCLE('',#1518,3.97071067811865);
#1106=VERTEX_POINT('',#1522);
#1107=LINE('',#1523,#1524);
#1108=VERTEX_POINT('',#1526);
#1109=LINE('',#1527,#1528);
#1110=LINE('',#1530,#1531);
#1111=CIRCLE('',#1533,3.72928932188135);
#1112=CIRCLE('',#1537,3.97071067811865);
#1113=CIRCLE('',#1541,0.1);
#1114=CIRCLE('',#1545,0.1);
#1115=CIRCLE('',#1549,0.1);
#1116=CIRCLE('',#1553,0.1);
#1117=CIRCLE('',#1557,0.1);
#1118=CIRCLE('',#1561,0.1);
#1119=CIRCLE('',#1565,0.1);
#1120=CIRCLE('',#1569,0.1);
#1121=CIRCLE('',#1573,0.1);
#1122=CIRCLE('',#1577,0.1);
#1123=CIRCLE('',#1581,0.1);
#1124=CIRCLE('',#1585,0.1);
#1125=CIRCLE('',#1589,0.1);
#1126=CIRCLE('',#1593,0.1);
#1127=CIRCLE('',#1597,0.1);
#1128=CIRCLE('',#1601,0.1);
#1129=CIRCLE('',#1605,0.1);
#1130=CIRCLE('',#1609,0.1);
#1131=CIRCLE('',#1613,0.1);
#1132=CIRCLE('',#1617,0.1);
#1133=CIRCLE('',#1621,0.1);
#1134=CIRCLE('',#1625,0.1);
#1135=CIRCLE('',#1629,0.1);
#1136=CIRCLE('',#1633,0.1);
#1137=CIRCLE('',#1637,0.1);
#1138=CIRCLE('',#1641,0.1);
#1139=CIRCLE('',#1645,0.1);
#1140=CIRCLE('',#1649,0.1);
#1141=CIRCLE('',#1653,0.1);
#1142=CIRCLE('',#1657,0.1);
#1143=CIRCLE('',#1661,0.1);
#1144=CIRCLE('',#1665,0.1);
#1145=CIRCLE('',#1669,1.);
#1146=CIRCLE('',#1673,1.);
#1147=CIRCLE('',#1677,1.);
#1148=CIRCLE('',#1681,1.);
#1149=AXIS2_PLACEMENT_3D('',#1150,#1151,#1152);
#1150=CARTESIAN_POINT('',(17.5,2.78944154071202,11.5));
#1151=DIRECTION('',(0.,0.,1.));
#1152=DIRECTION('',(0.,-1.,0.));
#1153=AXIS2_PLACEMENT_3D('',#1154,#1155,#1156);
#1154=CARTESIAN_POINT('',(-17.5,2.78944154071202,11.5));
#1155=DIRECTION('',(0.,0.,1.));
#1156=DIRECTION('',(0.,1.,0.));
#1157=CARTESIAN_POINT('',(17.5,7.68944154071202,4.5));
#1158=CARTESIAN_POINT('',(-17.5,7.68944154071202,4.5));
#1159=CARTESIAN_POINT('',(17.5,7.68944154071202,4.5));
#1160=VECTOR('',#1161,1.);
#1161=DIRECTION('',(-1.,5.07530525542929E-17,0.));
#1162=CARTESIAN_POINT('',(17.5,-2.11055845928798,4.5));
#1163=AXIS2_PLACEMENT_3D('',#1164,#1165,#1166);
#1164=CARTESIAN_POINT('',(17.5,2.78944154071202,4.5));
#1165=DIRECTION('',(0.,0.,1.));
#1166=DIRECTION('',(0.,-1.,0.));
#1167=CARTESIAN_POINT('',(-17.5,-2.11055845928798,4.5));
#1168=CARTESIAN_POINT('',(-17.5,-2.11055845928798,4.5));
#1169=VECTOR('',#1170,1.);
#1170=DIRECTION('',(1.,-7.61295788314393E-17,0.));
#1171=AXIS2_PLACEMENT_3D('',#1172,#1173,#1174);
#1172=CARTESIAN_POINT('',(-17.5,2.78944154071202,4.5));
#1173=DIRECTION('',(0.,0.,1.));
#1174=DIRECTION('',(0.,1.,0.));
#1175=CARTESIAN_POINT('',(-17.5,6.88944154071202,4.5));
#1176=CARTESIAN_POINT('',(17.5,6.88944154071201,4.5));
#1177=CARTESIAN_POINT('',(-17.5,6.88944154071202,4.5));
#1178=VECTOR('',#1179,1.);
#1179=DIRECTION('',(1.,-1.01506105108586E-16,0.));
#1180=CARTESIAN_POINT('',(-17.5,-1.31055845928798,4.5));
#1181=AXIS2_PLACEMENT_3D('',#1182,#1183,#1184);
#1182=CARTESIAN_POINT('',(-17.5,2.78944154071202,4.5));
#1183=DIRECTION('',(0.,0.,1.));
#1184=DIRECTION('',(0.,1.,0.));
#1185=CARTESIAN_POINT('',(17.5,-1.31055845928798,4.5));
#1186=CARTESIAN_POINT('',(17.5,-1.31055845928798,4.5));
#1187=VECTOR('',#1188,1.);
#1188=DIRECTION('',(-1.,7.61295788314393E-17,0.));
#1189=AXIS2_PLACEMENT_3D('',#1190,#1191,#1192);
#1190=CARTESIAN_POINT('',(17.5,2.78944154071202,4.5));
#1191=DIRECTION('',(0.,0.,1.));
#1192=DIRECTION('',(0.,-1.,0.));
#1193=CARTESIAN_POINT('',(17.5,-0.610558459287983,11.5));
#1194=CARTESIAN_POINT('',(17.5,6.18944154071202,11.5));
#1195=AXIS2_PLACEMENT_3D('',#1196,#1197,#1198);
#1196=CARTESIAN_POINT('',(17.5,2.78944154071202,11.5));
#1197=DIRECTION('',(0.,0.,-1.));
#1198=DIRECTION('',(0.,1.,0.));
#1199=CARTESIAN_POINT('',(-17.5,-0.610558459287981,11.5));
#1200=CARTESIAN_POINT('',(17.5,-0.610558459287984,11.5));
#1201=VECTOR('',#1202,1.);
#1202=DIRECTION('',(-1.,7.61295788314393E-17,0.));
#1203=CARTESIAN_POINT('',(-17.5,6.18944154071202,11.5));
#1204=AXIS2_PLACEMENT_3D('',#1205,#1206,#1207);
#1205=CARTESIAN_POINT('',(-17.5,2.78944154071202,11.5));
#1206=DIRECTION('',(0.,0.,-1.));
#1207=DIRECTION('',(0.,-1.,0.));
#1208=CARTESIAN_POINT('',(-17.5,6.18944154071202,11.5));
#1209=VECTOR('',#1210,1.);
#1210=DIRECTION('',(1.,-1.01506105108586E-16,0.));
#1211=CARTESIAN_POINT('',(3.5,1.,11.5));
#1212=CARTESIAN_POINT('',(3.5,4.2,11.5));
#1213=AXIS2_PLACEMENT_3D('',#1214,#1215,#1216);
#1214=CARTESIAN_POINT('',(3.5,2.6,11.5));
#1215=DIRECTION('',(0.,0.,1.));
#1216=DIRECTION('',(-2.77555756156289E-16,-1.,0.));
#1217=CARTESIAN_POINT('',(-3.5,4.2,11.5));
#1218=CARTESIAN_POINT('',(3.5,4.2,11.5));
#1219=VECTOR('',#1220,1.);
#1220=DIRECTION('',(-1.,-1.26882631385732E-16,0.));
#1221=CARTESIAN_POINT('',(-3.5,1.,11.5));
#1222=AXIS2_PLACEMENT_3D('',#1223,#1224,#1225);
#1223=CARTESIAN_POINT('',(-3.5,2.6,11.5));
#1224=DIRECTION('',(0.,0.,1.));
#1225=DIRECTION('',(2.77555756156289E-16,1.,0.));
#1226=CARTESIAN_POINT('',(-3.5,1.,11.5));
#1227=VECTOR('',#1228,1.);
#1228=DIRECTION('',(1.,-3.1720657846433E-17,0.));
#1229=CARTESIAN_POINT('',(17.5,-0.710558459287983,1.6));
#1230=CARTESIAN_POINT('',(-17.5,-0.710558459287981,1.6));
#1231=CARTESIAN_POINT('',(17.5,-0.710558459287984,1.6));
#1232=VECTOR('',#1233,1.);
#1233=DIRECTION('',(-1.,7.61295788314393E-17,0.));
#1234=CARTESIAN_POINT('',(-17.5,-0.710558459287981,11.4));
#1235=CARTESIAN_POINT('',(-17.5,-0.710558459287981,1.6));
#1236=VECTOR('',#1237,1.);
#1237=DIRECTION('',(0.,0.,1.));
#1238=CARTESIAN_POINT('',(17.5,-0.710558459287983,11.4));
#1239=CARTESIAN_POINT('',(17.5,-0.710558459287984,11.4));
#1240=VECTOR('',#1241,1.);
#1241=DIRECTION('',(-1.,7.61295788314393E-17,0.));
#1242=CARTESIAN_POINT('',(17.5,-0.710558459287983,1.6));
#1243=VECTOR('',#1244,1.);
#1244=DIRECTION('',(0.,0.,1.));
#1245=CARTESIAN_POINT('',(17.5,6.28944154071201,1.6));
#1246=AXIS2_PLACEMENT_3D('',#1247,#1248,#1249);
#1247=CARTESIAN_POINT('',(17.5,2.78944154071202,1.6));
#1248=DIRECTION('',(0.,0.,-1.));
#1249=DIRECTION('',(0.,1.,0.));
#1250=CARTESIAN_POINT('',(17.5,6.28944154071201,11.4));
#1251=AXIS2_PLACEMENT_3D('',#1252,#1253,#1254);
#1252=CARTESIAN_POINT('',(17.5,2.78944154071202,11.4));
#1253=DIRECTION('',(0.,0.,-1.));
#1254=DIRECTION('',(0.,1.,0.));
#1255=CARTESIAN_POINT('',(17.5,6.28944154071201,1.6));
#1256=VECTOR('',#1257,1.);
#1257=DIRECTION('',(0.,0.,1.));
#1258=CARTESIAN_POINT('',(-17.5,6.28944154071202,1.6));
#1259=CARTESIAN_POINT('',(-17.5,6.28944154071202,1.6));
#1260=VECTOR('',#1261,1.);
#1261=DIRECTION('',(1.,-1.01506105108586E-16,0.));
#1262=CARTESIAN_POINT('',(-17.5,6.28944154071202,11.4));
#1263=CARTESIAN_POINT('',(-17.5,6.28944154071202,11.4));
#1264=VECTOR('',#1265,1.);
#1265=DIRECTION('',(1.,-1.01506105108586E-16,0.));
#1266=CARTESIAN_POINT('',(-17.5,6.28944154071202,1.6));
#1267=VECTOR('',#1268,1.);
#1268=DIRECTION('',(0.,0.,1.));
#1269=AXIS2_PLACEMENT_3D('',#1270,#1271,#1272);
#1270=CARTESIAN_POINT('',(-17.5,2.78944154071202,1.6));
#1271=DIRECTION('',(0.,0.,-1.));
#1272=DIRECTION('',(0.,-1.,0.));
#1273=AXIS2_PLACEMENT_3D('',#1274,#1275,#1276);
#1274=CARTESIAN_POINT('',(-17.5,2.78944154071202,11.4));
#1275=DIRECTION('',(0.,0.,-1.));
#1276=DIRECTION('',(0.,-1.,0.));
#1277=CARTESIAN_POINT('',(-17.5,6.78944154071202,1.84142135623731));
#1278=CARTESIAN_POINT('',(-17.5,-1.21055845928798,1.84142135623731));
#1279=AXIS2_PLACEMENT_3D('',#1280,#1281,#1282);
#1280=CARTESIAN_POINT('',(-17.5,2.78944154071202,1.84142135623731));
#1281=DIRECTION('',(0.,0.,1.));
#1282=DIRECTION('',(0.,1.,0.));
#1283=CARTESIAN_POINT('',(-17.5,-1.21055845928798,4.4));
#1284=CARTESIAN_POINT('',(-17.5,-1.21055845928798,1.84142135623731));
#1285=VECTOR('',#1286,1.);
#1286=DIRECTION('',(0.,0.,1.));
#1287=CARTESIAN_POINT('',(-17.5,6.78944154071202,4.4));
#1288=AXIS2_PLACEMENT_3D('',#1289,#1290,#1291);
#1289=CARTESIAN_POINT('',(-17.5,2.78944154071202,4.4));
#1290=DIRECTION('',(0.,0.,1.));
#1291=DIRECTION('',(0.,1.,0.));
#1292=CARTESIAN_POINT('',(-17.5,6.78944154071202,1.84142135623731));
#1293=VECTOR('',#1294,1.);
#1294=DIRECTION('',(0.,0.,1.));
#1295=CARTESIAN_POINT('',(17.5,6.78944154071201,1.84142135623731));
#1296=CARTESIAN_POINT('',(17.5,6.78944154071201,1.84142135623731));
#1297=VECTOR('',#1298,1.);
#1298=DIRECTION('',(-1.,1.01506105108586E-16,0.));
#1299=CARTESIAN_POINT('',(17.5,6.78944154071201,4.4));
#1300=CARTESIAN_POINT('',(-17.5,6.78944154071202,4.4));
#1301=VECTOR('',#1302,1.);
#1302=DIRECTION('',(1.,-1.01506105108586E-16,0.));
#1303=CARTESIAN_POINT('',(17.5,6.78944154071201,1.84142135623731));
#1304=VECTOR('',#1305,1.);
#1305=DIRECTION('',(0.,0.,1.));
#1306=CARTESIAN_POINT('',(17.5,-1.21055845928798,1.84142135623731));
#1307=AXIS2_PLACEMENT_3D('',#1308,#1309,#1310);
#1308=CARTESIAN_POINT('',(17.5,2.78944154071202,1.84142135623731));
#1309=DIRECTION('',(0.,0.,1.));
#1310=DIRECTION('',(0.,-1.,0.));
#1311=CARTESIAN_POINT('',(17.5,-1.21055845928798,4.4));
#1312=AXIS2_PLACEMENT_3D('',#1313,#1314,#1315);
#1313=CARTESIAN_POINT('',(17.5,2.78944154071202,4.4));
#1314=DIRECTION('',(0.,0.,1.));
#1315=DIRECTION('',(0.,-1.,0.));
#1316=CARTESIAN_POINT('',(17.5,-1.21055845928798,1.84142135623731));
#1317=VECTOR('',#1318,1.);
#1318=DIRECTION('',(0.,0.,1.));
#1319=CARTESIAN_POINT('',(-17.5,-1.21055845928798,1.84142135623731));
#1320=VECTOR('',#1321,1.);
#1321=DIRECTION('',(1.,-7.61295788314393E-17,0.));
#1322=CARTESIAN_POINT('',(17.5,-1.21055845928798,4.4));
#1323=VECTOR('',#1324,1.);
#1324=DIRECTION('',(-1.,7.61295788314393E-17,0.));
#1325=CARTESIAN_POINT('',(17.5,-2.21055845928798,11.5));
#1326=CARTESIAN_POINT('',(-17.5,-2.21055845928798,11.5));
#1327=CARTESIAN_POINT('',(-17.5,-2.21055845928798,11.5));
#1328=VECTOR('',#1329,1.);
#1329=DIRECTION('',(1.,-1.01506105108586E-16,0.));
#1330=CARTESIAN_POINT('',(-17.5,-2.21055845928798,4.6));
#1331=CARTESIAN_POINT('',(-17.5,-2.21055845928798,4.6));
#1332=VECTOR('',#1333,1.);
#1333=DIRECTION('',(0.,0.,1.));
#1334=CARTESIAN_POINT('',(17.5,-2.21055845928798,4.6));
#1335=CARTESIAN_POINT('',(-17.5,-2.21055845928798,4.6));
#1336=VECTOR('',#1337,1.);
#1337=DIRECTION('',(1.,-7.61295788314393E-17,0.));
#1338=CARTESIAN_POINT('',(17.5,-2.21055845928798,4.6));
#1339=VECTOR('',#1340,1.);
#1340=DIRECTION('',(0.,0.,1.));
#1341=CARTESIAN_POINT('',(-17.5,7.78944154071202,11.5));
#1342=AXIS2_PLACEMENT_3D('',#1343,#1344,#1345);
#1343=CARTESIAN_POINT('',(-17.5,2.78944154071202,11.5));
#1344=DIRECTION('',(0.,0.,1.));
#1345=DIRECTION('',(0.,1.,0.));
#1346=CARTESIAN_POINT('',(-17.5,7.78944154071202,4.6));
#1347=CARTESIAN_POINT('',(-17.5,7.78944154071202,4.6));
#1348=VECTOR('',#1349,1.);
#1349=DIRECTION('',(0.,0.,1.));
#1350=AXIS2_PLACEMENT_3D('',#1351,#1352,#1353);
#1351=CARTESIAN_POINT('',(-17.5,2.78944154071202,4.6));
#1352=DIRECTION('',(0.,0.,1.));
#1353=DIRECTION('',(0.,1.,0.));
#1354=CARTESIAN_POINT('',(17.5,7.78944154071202,11.5));
#1355=CARTESIAN_POINT('',(17.5,7.78944154071202,11.5));
#1356=VECTOR('',#1357,1.);
#1357=DIRECTION('',(-1.,5.07530525542929E-17,0.));
#1358=CARTESIAN_POINT('',(17.5,7.78944154071202,4.6));
#1359=CARTESIAN_POINT('',(17.5,7.78944154071202,4.6));
#1360=VECTOR('',#1361,1.);
#1361=DIRECTION('',(0.,0.,1.));
#1362=CARTESIAN_POINT('',(17.5,7.78944154071202,4.6));
#1363=VECTOR('',#1364,1.);
#1364=DIRECTION('',(-1.,5.07530525542929E-17,0.));
#1365=AXIS2_PLACEMENT_3D('',#1366,#1367,#1368);
#1366=CARTESIAN_POINT('',(17.5,2.78944154071202,11.5));
#1367=DIRECTION('',(0.,0.,1.));
#1368=DIRECTION('',(0.,-1.,0.));
#1369=AXIS2_PLACEMENT_3D('',#1370,#1371,#1372);
#1370=CARTESIAN_POINT('',(17.5,2.78944154071202,4.6));
#1371=DIRECTION('',(0.,0.,1.));
#1372=DIRECTION('',(0.,-1.,0.));
#1373=CARTESIAN_POINT('',(3.5,4.1,12.4));
#1374=CARTESIAN_POINT('',(3.5,1.1,12.4));
#1375=AXIS2_PLACEMENT_3D('',#1376,#1377,#1378);
#1376=CARTESIAN_POINT('',(3.5,2.6,12.4));
#1377=DIRECTION('',(0.,0.,1.));
#1378=DIRECTION('',(-2.96059473233375E-16,-1.,0.));
#1379=CARTESIAN_POINT('',(3.5,4.1,11.6));
#1380=CARTESIAN_POINT('',(3.5,4.1,11.6));
#1381=VECTOR('',#1382,1.);
#1382=DIRECTION('',(0.,0.,1.));
#1383=CARTESIAN_POINT('',(3.5,1.1,11.6));
#1384=AXIS2_PLACEMENT_3D('',#1385,#1386,#1387);
#1385=CARTESIAN_POINT('',(3.5,2.6,11.6));
#1386=DIRECTION('',(0.,0.,1.));
#1387=DIRECTION('',(-2.96059473233375E-16,-1.,0.));
#1388=CARTESIAN_POINT('',(3.5,1.1,11.6));
#1389=VECTOR('',#1390,1.);
#1390=DIRECTION('',(0.,0.,1.));
#1391=CARTESIAN_POINT('',(-3.5,4.1,12.4));
#1392=CARTESIAN_POINT('',(3.5,4.1,12.4));
#1393=VECTOR('',#1394,1.);
#1394=DIRECTION('',(-1.,-1.26882631385732E-16,0.));
#1395=CARTESIAN_POINT('',(-3.5,4.1,11.6));
#1396=CARTESIAN_POINT('',(-3.5,4.1,11.6));
#1397=VECTOR('',#1398,1.);
#1398=DIRECTION('',(0.,0.,1.));
#1399=CARTESIAN_POINT('',(3.5,4.1,11.6));
#1400=VECTOR('',#1401,1.);
#1401=DIRECTION('',(-1.,-1.26882631385732E-16,0.));
#1402=CARTESIAN_POINT('',(-3.5,1.1,12.4));
#1403=AXIS2_PLACEMENT_3D('',#1404,#1405,#1406);
#1404=CARTESIAN_POINT('',(-3.5,2.6,12.4));
#1405=DIRECTION('',(0.,0.,1.));
#1406=DIRECTION('',(2.96059473233375E-16,1.,0.));
#1407=CARTESIAN_POINT('',(-3.5,1.1,11.6));
#1408=CARTESIAN_POINT('',(-3.5,1.1,11.6));
#1409=VECTOR('',#1410,1.);
#1410=DIRECTION('',(0.,0.,1.));
#1411=AXIS2_PLACEMENT_3D('',#1412,#1413,#1414);
#1412=CARTESIAN_POINT('',(-3.5,2.6,11.6));
#1413=DIRECTION('',(0.,0.,1.));
#1414=DIRECTION('',(2.96059473233375E-16,1.,0.));
#1415=CARTESIAN_POINT('',(-3.5,1.1,12.4));
#1416=VECTOR('',#1417,1.);
#1417=DIRECTION('',(1.,-3.1720657846433E-17,0.));
#1418=CARTESIAN_POINT('',(-3.5,1.1,11.6));
#1419=VECTOR('',#1420,1.);
#1420=DIRECTION('',(1.,-3.1720657846433E-17,0.));
#1421=CARTESIAN_POINT('',(17.5,6.4480201844747,1.5));
#1422=CARTESIAN_POINT('',(-17.5,6.44802018447471,1.5));
#1423=CARTESIAN_POINT('',(17.5,6.4480201844747,1.5));
#1424=VECTOR('',#1425,1.);
#1425=DIRECTION('',(-1.,1.26882631385732E-16,0.));
#1426=CARTESIAN_POINT('',(17.5,-0.869137103050673,1.5));
#1427=AXIS2_PLACEMENT_3D('',#1428,#1429,#1430);
#1428=CARTESIAN_POINT('',(17.5,2.78944154071202,1.5));
#1429=DIRECTION('',(0.,0.,1.));
#1430=DIRECTION('',(0.,-1.,0.));
#1431=CARTESIAN_POINT('',(-17.5,-0.869137103050672,1.5));
#1432=CARTESIAN_POINT('',(-17.5,-0.869137103050672,1.5));
#1433=VECTOR('',#1434,1.);
#1434=DIRECTION('',(1.,-7.61295788314393E-17,0.));
#1435=AXIS2_PLACEMENT_3D('',#1436,#1437,#1438);
#1436=CARTESIAN_POINT('',(-17.5,2.78944154071202,1.5));
#1437=DIRECTION('',(0.,0.,1.));
#1438=DIRECTION('',(0.,1.,0.));
#1439=CARTESIAN_POINT('',(-17.5,6.38944154071202,1.5));
#1440=CARTESIAN_POINT('',(17.5,6.38944154071201,1.5));
#1441=CARTESIAN_POINT('',(-17.5,6.38944154071202,1.5));
#1442=VECTOR('',#1443,1.);
#1443=DIRECTION('',(1.,-5.07530525542929E-17,0.));
#1444=CARTESIAN_POINT('',(-17.5,-0.810558459287981,1.5));
#1445=AXIS2_PLACEMENT_3D('',#1446,#1447,#1448);
#1446=CARTESIAN_POINT('',(-17.5,2.78944154071202,1.5));
#1447=DIRECTION('',(0.,0.,-1.));
#1448=DIRECTION('',(0.,-1.,0.));
#1449=CARTESIAN_POINT('',(17.5,-0.810558459287983,1.5));
#1450=CARTESIAN_POINT('',(17.5,-0.810558459287984,1.5));
#1451=VECTOR('',#1452,1.);
#1452=DIRECTION('',(-1.,8.24737104007259E-17,0.));
#1453=AXIS2_PLACEMENT_3D('',#1454,#1455,#1456);
#1454=CARTESIAN_POINT('',(17.5,2.78944154071202,1.5));
#1455=DIRECTION('',(0.,0.,-1.));
#1456=DIRECTION('',(0.,1.,0.));
#1457=CARTESIAN_POINT('',(17.5,-1.21055845928798,12.5));
#1458=CARTESIAN_POINT('',(17.5,6.78944154071201,12.5));
#1459=AXIS2_PLACEMENT_3D('',#1460,#1461,#1462);
#1460=CARTESIAN_POINT('',(17.5,2.78944154071202,12.5));
#1461=DIRECTION('',(0.,0.,1.));
#1462=DIRECTION('',(0.,-1.,0.));
#1463=CARTESIAN_POINT('',(-17.5,6.78944154071202,12.5));
#1464=CARTESIAN_POINT('',(17.5,6.78944154071202,12.5));
#1465=VECTOR('',#1466,1.);
#1466=DIRECTION('',(-1.,5.07530525542929E-17,0.));
#1467=CARTESIAN_POINT('',(-17.5,-1.21055845928798,12.5));
#1468=AXIS2_PLACEMENT_3D('',#1469,#1470,#1471);
#1469=CARTESIAN_POINT('',(-17.5,2.78944154071202,12.5));
#1470=DIRECTION('',(0.,0.,1.));
#1471=DIRECTION('',(0.,1.,0.));
#1472=CARTESIAN_POINT('',(-17.5,-1.21055845928798,12.5));
#1473=VECTOR('',#1474,1.);
#1474=DIRECTION('',(1.,-8.88178419700125E-17,0.));
#1475=CARTESIAN_POINT('',(3.5,4.2,12.5));
#1476=CARTESIAN_POINT('',(3.5,1.,12.5));
#1477=AXIS2_PLACEMENT_3D('',#1478,#1479,#1480);
#1478=CARTESIAN_POINT('',(3.5,2.6,12.5));
#1479=DIRECTION('',(0.,0.,1.));
#1480=DIRECTION('',(-2.77555756156289E-16,-1.,0.));
#1481=CARTESIAN_POINT('',(-3.5,1.,12.5));
#1482=CARTESIAN_POINT('',(-3.5,1.,12.5));
#1483=VECTOR('',#1484,1.);
#1484=DIRECTION('',(1.,-3.17206578464331E-17,0.));
#1485=CARTESIAN_POINT('',(-3.5,4.2,12.5));
#1486=AXIS2_PLACEMENT_3D('',#1487,#1488,#1489);
#1487=CARTESIAN_POINT('',(-3.5,2.6,12.5));
#1488=DIRECTION('',(0.,0.,1.));
#1489=DIRECTION('',(2.77555756156289E-16,1.,0.));
#1490=CARTESIAN_POINT('',(3.5,4.2,12.5));
#1491=VECTOR('',#1492,1.);
#1492=DIRECTION('',(-1.,-1.26882631385732E-16,0.));
#1493=CARTESIAN_POINT('',(-17.5,-0.939847781169327,1.52928932188135));
#1494=CARTESIAN_POINT('',(17.5,-0.939847781169328,1.52928932188135));
#1495=CARTESIAN_POINT('',(-17.5,-0.939847781169327,1.52928932188135));
#1496=VECTOR('',#1497,1.);
#1497=DIRECTION('',(1.,-6.97854472621527E-17,-6.34413156928661E-18));
#1498=CARTESIAN_POINT('',(17.5,-1.18126913740664,1.77071067811865));
#1499=CARTESIAN_POINT('',(17.5,-1.18126913740664,1.77071067811865));
#1500=VECTOR('',#1501,1.);
#1501=DIRECTION('',(0.,0.707106781186548,-0.707106781186547));
#1502=CARTESIAN_POINT('',(-17.5,-1.18126913740664,1.77071067811865));
#1503=CARTESIAN_POINT('',(-17.5,-1.18126913740664,1.77071067811865));
#1504=VECTOR('',#1505,1.);
#1505=DIRECTION('',(1.,-7.61295788314393E-17,0.));
#1506=CARTESIAN_POINT('',(-17.5,-1.18126913740664,1.77071067811865));
#1507=VECTOR('',#1508,1.);
#1508=DIRECTION('',(0.,0.707106781186546,-0.707106781186549));
#1509=CARTESIAN_POINT('',(17.5,6.51873086259336,1.52928932188135));
#1510=AXIS2_PLACEMENT_3D('',#1511,#1512,#1513);
#1511=CARTESIAN_POINT('',(17.5,2.78944154071202,1.52928932188135));
#1512=DIRECTION('',(0.,0.,1.));
#1513=DIRECTION('',(0.,-1.,0.));
#1514=CARTESIAN_POINT('',(17.5,6.76015221883067,1.77071067811866));
#1515=CARTESIAN_POINT('',(17.5,6.76015221883067,1.77071067811866));
#1516=VECTOR('',#1517,1.);
#1517=DIRECTION('',(0.,-0.707106781186548,-0.707106781186547));
#1518=AXIS2_PLACEMENT_3D('',#1519,#1520,#1521);
#1519=CARTESIAN_POINT('',(17.5,2.78944154071202,1.77071067811865));
#1520=DIRECTION('',(0.,0.,1.));
#1521=DIRECTION('',(8.94729927914012E-16,-1.,0.));
#1522=CARTESIAN_POINT('',(-17.5,6.51873086259336,1.52928932188135));
#1523=CARTESIAN_POINT('',(17.5,6.51873086259336,1.52928932188135));
#1524=VECTOR('',#1525,1.);
#1525=DIRECTION('',(-1.,1.01506105108586E-16,0.));
#1526=CARTESIAN_POINT('',(-17.5,6.76015221883067,1.77071067811865));
#1527=CARTESIAN_POINT('',(-17.5,6.76015221883067,1.77071067811865));
#1528=VECTOR('',#1529,1.);
#1529=DIRECTION('',(0.,-0.707106781186547,-0.707106781186549));
#1530=CARTESIAN_POINT('',(17.5,6.76015221883067,1.77071067811865));
#1531=VECTOR('',#1532,1.);
#1532=DIRECTION('',(-1.,1.01506105108586E-16,0.));
#1533=AXIS2_PLACEMENT_3D('',#1534,#1535,#1536);
#1534=CARTESIAN_POINT('',(-17.5,2.78944154071202,1.52928932188135));
#1535=DIRECTION('',(0.,0.,1.));
#1536=DIRECTION('',(9.52651664207226E-16,1.,0.));
#1537=AXIS2_PLACEMENT_3D('',#1538,#1539,#1540);
#1538=CARTESIAN_POINT('',(-17.5,2.78944154071202,1.77071067811865));
#1539=DIRECTION('',(0.,0.,1.));
#1540=DIRECTION('',(0.,1.,0.));
#1541=AXIS2_PLACEMENT_3D('',#1542,#1543,#1544);
#1542=CARTESIAN_POINT('',(17.5,7.68944154071202,4.6));
#1543=DIRECTION('',(-1.,1.88044024795886E-15,0.));
#1544=DIRECTION('',(1.88044024795886E-15,1.,0.));
#1545=AXIS2_PLACEMENT_3D('',#1546,#1547,#1548);
#1546=CARTESIAN_POINT('',(-17.5,7.68944154071202,4.6));
#1547=DIRECTION('',(-1.,4.96189061284986E-17,0.));
#1548=DIRECTION('',(4.96189061284986E-17,1.,-6.12323399573677E-17));
#1549=AXIS2_PLACEMENT_3D('',#1550,#1551,#1552);
#1550=CARTESIAN_POINT('',(-17.5,-2.11055845928798,4.6));
#1551=DIRECTION('',(1.,-1.17267306976032E-15,0.));
#1552=DIRECTION('',(-1.17267306976032E-15,-1.,0.));
#1553=AXIS2_PLACEMENT_3D('',#1554,#1555,#1556);
#1554=CARTESIAN_POINT('',(17.5,-2.11055845928798,4.6));
#1555=DIRECTION('',(1.,-7.44283591927479E-17,0.));
#1556=DIRECTION('',(-7.44283591927479E-17,-1.,-6.12323399573677E-17));
#1557=AXIS2_PLACEMENT_3D('',#1558,#1559,#1560);
#1558=CARTESIAN_POINT('',(17.5,6.88944154071201,4.4));
#1559=DIRECTION('',(1.,-9.92378122569972E-17,0.));
#1560=DIRECTION('',(-6.07656345674588E-33,-6.12323399573677E-17,1.));
#1561=AXIS2_PLACEMENT_3D('',#1562,#1563,#1564);
#1562=CARTESIAN_POINT('',(-17.5,6.88944154071202,4.4));
#1563=DIRECTION('',(1.,1.2490009027033E-16,0.));
#1564=DIRECTION('',(0.,0.,1.));
#1565=AXIS2_PLACEMENT_3D('',#1566,#1567,#1568);
#1566=CARTESIAN_POINT('',(17.5,-1.31055845928798,4.4));
#1567=DIRECTION('',(-1.,-1.01307850997046E-15,0.));
#1568=DIRECTION('',(-2.2494861750443E-30,2.22044604925032E-15,1.));
#1569=AXIS2_PLACEMENT_3D('',#1570,#1571,#1572);
#1570=CARTESIAN_POINT('',(-17.5,-1.31055845928798,4.4));
#1571=DIRECTION('',(-1.,7.44283591927479E-17,0.));
#1572=DIRECTION('',(4.55742259255941E-33,6.12323399573677E-17,1.));
#1573=AXIS2_PLACEMENT_3D('',#1574,#1575,#1576);
#1574=CARTESIAN_POINT('',(17.5,6.18944154071202,11.4));
#1575=DIRECTION('',(-1.,-2.63677968348475E-16,0.));
#1576=DIRECTION('',(0.,0.,1.));
#1577=AXIS2_PLACEMENT_3D('',#1578,#1579,#1580);
#1578=CARTESIAN_POINT('',(17.5,-0.610558459287984,11.4));
#1579=DIRECTION('',(1.,-7.44283591927479E-17,0.));
#1580=DIRECTION('',(-4.55742259255941E-33,-6.12323399573677E-17,1.));
#1581=AXIS2_PLACEMENT_3D('',#1582,#1583,#1584);
#1582=CARTESIAN_POINT('',(-17.5,6.18944154071202,11.4));
#1583=DIRECTION('',(-1.,9.92378122569972E-17,0.));
#1584=DIRECTION('',(6.07656345674588E-33,6.12323399573677E-17,1.));
#1585=AXIS2_PLACEMENT_3D('',#1586,#1587,#1588);
#1586=CARTESIAN_POINT('',(-17.5,-0.610558459287981,11.4));
#1587=DIRECTION('',(1.,2.56739074444567E-16,0.));
#1588=DIRECTION('',(-5.70075263538624E-31,2.22044604925032E-15,1.));
#1589=AXIS2_PLACEMENT_3D('',#1590,#1591,#1592);
#1590=CARTESIAN_POINT('',(-17.5,6.38944154071202,1.6));
#1591=DIRECTION('',(1.,5.82867087928207E-16,0.));
#1592=DIRECTION('',(5.82867087928207E-16,-1.,0.));
#1593=AXIS2_PLACEMENT_3D('',#1594,#1595,#1596);
#1594=CARTESIAN_POINT('',(17.5,6.38944154071201,1.6));
#1595=DIRECTION('',(1.,-7.44283591927479E-17,0.));
#1596=DIRECTION('',(-7.44283591927479E-17,-1.,8.82055185704388E-15));
#1597=AXIS2_PLACEMENT_3D('',#1598,#1599,#1600);
#1598=CARTESIAN_POINT('',(17.5,-0.810558459287982,1.6));
#1599=DIRECTION('',(-1.,-5.759281940243E-16,0.));
#1600=DIRECTION('',(-5.759281940243E-16,1.,0.));
#1601=AXIS2_PLACEMENT_3D('',#1602,#1603,#1604);
#1602=CARTESIAN_POINT('',(-17.5,-0.810558459287981,1.6));
#1603=DIRECTION('',(-1.,7.75295408257791E-17,0.));
#1604=DIRECTION('',(7.75295408257791E-17,1.,-6.12323399573677E-17));
#1605=AXIS2_PLACEMENT_3D('',#1606,#1607,#1608);
#1606=CARTESIAN_POINT('',(-17.5,6.68944154071202,1.84142135623731));
#1607=DIRECTION('',(-1.,9.92378122569972E-17,6.16297582203916E-33));
#1608=DIRECTION('',(9.92378122569972E-17,1.,-5.55111512312578E-16));
#1609=AXIS2_PLACEMENT_3D('',#1610,#1611,#1612);
#1610=CARTESIAN_POINT('',(-17.5,-1.11055845928798,1.84142135623731));
#1611=DIRECTION('',(1.,5.34294830600857E-16,0.));
#1612=DIRECTION('',(5.34294830600857E-16,-1.,0.));
#1613=AXIS2_PLACEMENT_3D('',#1614,#1615,#1616);
#1614=CARTESIAN_POINT('',(17.5,-1.11055845928798,1.84142135623731));
#1615=DIRECTION('',(1.,-7.44283591927479E-17,0.));
#1616=DIRECTION('',(-7.44283591927479E-17,-1.,0.));
#1617=AXIS2_PLACEMENT_3D('',#1618,#1619,#1620);
#1618=CARTESIAN_POINT('',(17.5,6.68944154071202,1.84142135623731));
#1619=DIRECTION('',(-1.,-5.41233724504764E-16,0.));
#1620=DIRECTION('',(-5.41233724504764E-16,1.,0.));
#1621=AXIS2_PLACEMENT_3D('',#1622,#1623,#1624);
#1622=CARTESIAN_POINT('',(-17.5,6.44802018447471,1.6));
#1623=DIRECTION('',(1.,-9.92378122569966E-17,-6.40949485492072E-31));
#1624=DIRECTION('',(-6.77927340424307E-31,-3.33066907387547E-16,-1.));
#1625=AXIS2_PLACEMENT_3D('',#1626,#1627,#1628);
#1626=CARTESIAN_POINT('',(17.5,6.44802018447471,1.6));
#1627=DIRECTION('',(1.,3.19189119579733E-16,0.));
#1628=DIRECTION('',(0.,0.,-1.));
#1629=AXIS2_PLACEMENT_3D('',#1630,#1631,#1632);
#1630=CARTESIAN_POINT('',(-17.5,-0.869137103050673,1.6));
#1631=DIRECTION('',(-1.,1.89431803576667E-15,0.));
#1632=DIRECTION('',(0.,0.,-1.));
#1633=AXIS2_PLACEMENT_3D('',#1634,#1635,#1636);
#1634=CARTESIAN_POINT('',(17.5,-0.869137103050674,1.6));
#1635=DIRECTION('',(-1.,7.44283591927479E-17,6.20236326606233E-18));
#1636=DIRECTION('',(-6.20236326606245E-18,-1.55431223447522E-15,-1.));
#1637=AXIS2_PLACEMENT_3D('',#1638,#1639,#1640);
#1638=CARTESIAN_POINT('',(3.5,1.,11.6));
#1639=DIRECTION('',(1.,-2.84672570416707E-17,0.));
#1640=DIRECTION('',(-5.03936950688537E-31,-1.77023360540451E-14,-1.));
#1641=AXIS2_PLACEMENT_3D('',#1642,#1643,#1644);
#1642=CARTESIAN_POINT('',(3.5,4.2,11.6));
#1643=DIRECTION('',(-1.,9.43689570931383E-16,0.));
#1644=DIRECTION('',(0.,0.,-1.));
#1645=AXIS2_PLACEMENT_3D('',#1646,#1647,#1648);
#1646=CARTESIAN_POINT('',(-3.5,4.2,11.6));
#1647=DIRECTION('',(-1.,-1.13869028166683E-16,0.));
#1648=DIRECTION('',(-2.01574780275416E-30,1.77023360540452E-14,-1.));
#1649=AXIS2_PLACEMENT_3D('',#1650,#1651,#1652);
#1650=CARTESIAN_POINT('',(-3.5,1.,11.6));
#1651=DIRECTION('',(1.,-9.43689570931383E-16,0.));
#1652=DIRECTION('',(8.38164711797328E-30,8.88178419700128E-15,-1.));
#1653=AXIS2_PLACEMENT_3D('',#1654,#1655,#1656);
#1654=CARTESIAN_POINT('',(3.5,4.2,12.4));
#1655=DIRECTION('',(1.,1.13869028166683E-16,0.));
#1656=DIRECTION('',(-2.01574780275416E-30,1.77023360540452E-14,1.));
#1657=AXIS2_PLACEMENT_3D('',#1658,#1659,#1660);
#1658=CARTESIAN_POINT('',(3.5,1.,12.4));
#1659=DIRECTION('',(-1.,7.35522753814166E-16,0.));
#1660=DIRECTION('',(-1.63318859284038E-30,-2.22044604925032E-15,1.));
#1661=AXIS2_PLACEMENT_3D('',#1662,#1663,#1664);
#1662=CARTESIAN_POINT('',(-3.5,1.,12.4));
#1663=DIRECTION('',(-1.,2.84672570416707E-17,0.));
#1664=DIRECTION('',(-5.03936950688537E-31,-1.77023360540451E-14,1.));
#1665=AXIS2_PLACEMENT_3D('',#1666,#1667,#1668);
#1666=CARTESIAN_POINT('',(-3.5,4.2,12.4));
#1667=DIRECTION('',(1.,-6.80011602582909E-16,0.));
#1668=DIRECTION('',(-6.03971630559839E-30,-8.88178419700128E-15,1.));
#1669=AXIS2_PLACEMENT_3D('',#1670,#1671,#1672);
#1670=CARTESIAN_POINT('',(17.5,6.78944154071201,11.5));
#1671=DIRECTION('',(1.,-8.88178419700125E-16,0.));
#1672=DIRECTION('',(8.88178419700125E-16,1.,0.));
#1673=AXIS2_PLACEMENT_3D('',#1674,#1675,#1676);
#1674=CARTESIAN_POINT('',(17.5,-1.21055845928798,11.5));
#1675=DIRECTION('',(-1.,8.26212483441977E-17,0.));
#1676=DIRECTION('',(-8.26212483441977E-17,-1.,-1.60812264967664E-16));
#1677=AXIS2_PLACEMENT_3D('',#1678,#1679,#1680);
#1678=CARTESIAN_POINT('',(-17.5,6.78944154071202,11.5));
#1679=DIRECTION('',(1.,-4.13106241720988E-17,0.));
#1680=DIRECTION('',(4.13106241720988E-17,1.,6.12323399573677E-17));
#1681=AXIS2_PLACEMENT_3D('',#1682,#1683,#1684);
#1682=CARTESIAN_POINT('',(-17.5,-1.21055845928798,11.5));
#1683=DIRECTION('',(-1.,8.88178419700125E-16,0.));
#1684=DIRECTION('',(-8.88178419700125E-16,-1.,0.));
ENDSEC;
END-ISO-10303-21;
